<?xml version="1.0" encoding="UTF-8" standalone="no"?>
<!-- Created with Inkscape (http://www.inkscape.org/) -->

<svg
   version="1.1"
   id="svg1"
   width="688"
   height="688"
   viewBox="0 0 688 688"
   sodipodi:docname="antiqueen-black.svg"
   inkscape:version="1.4.2 (f4327f4, 2025-05-13)"
   xmlns:inkscape="http://www.inkscape.org/namespaces/inkscape"
   xmlns:sodipodi="http://sodipodi.sourceforge.net/DTD/sodipodi-0.dtd"
   xmlns="http://www.w3.org/2000/svg"
   xmlns:svg="http://www.w3.org/2000/svg">
  <defs
     id="defs1">
    <inkscape:path-effect
       effect="fillet_chamfer"
       id="path-effect11"
       is_visible="true"
       lpeversion="1"
       nodesatellites_param="F,0,0,1,0,0,0,1 @ F,0,0,1,0,0,0,1"
       radius="0"
       unit="px"
       method="auto"
       mode="F"
       chamfer_steps="1"
       flexible="false"
       use_knot_distance="true"
       apply_no_radius="true"
       apply_with_radius="true"
       only_selected="false"
       hide_knots="false" />
    <inkscape:path-effect
       effect="fillet_chamfer"
       id="path-effect10"
       is_visible="true"
       lpeversion="1"
       nodesatellites_param="F,0,0,1,0,0,0,1 @ F,0,0,1,0,12,0,1"
       radius="12"
       unit="px"
       method="auto"
       mode="F"
       chamfer_steps="1"
       flexible="false"
       use_knot_distance="true"
       apply_no_radius="true"
       apply_with_radius="true"
       only_selected="false"
       hide_knots="false" />
    <inkscape:path-effect
       effect="mirror_symmetry"
       start_point="349.06232,255.37432"
       end_point="349.06232,254.53674"
       center_point="349.06232,254.95553"
       id="path-effect2"
       is_visible="true"
       lpeversion="1.2"
       lpesatellites=""
       mode="free"
       discard_orig_path="false"
       fuse_paths="false"
       oposite_fuse="false"
       split_items="false"
       split_open="false"
       link_styles="false" />
    <inkscape:path-effect
       effect="mirror_symmetry"
       start_point="570.88631,-2.135817"
       end_point="570.88631,685.86418"
       center_point="570.88631,341.86418"
       id="path-effect9"
       is_visible="true"
       lpeversion="1.2"
       lpesatellites=""
       mode="vertical"
       discard_orig_path="false"
       fuse_paths="false"
       oposite_fuse="false"
       split_items="false"
       split_open="false"
       link_styles="false" />
    <inkscape:path-effect
       effect="mirror_symmetry"
       start_point="546.88255,252.50396"
       end_point="546.88255,252.50396"
       center_point="546.88255,252.50396"
       id="path-effect5"
       is_visible="true"
       lpeversion="1.2"
       lpesatellites=""
       mode="free"
       discard_orig_path="false"
       fuse_paths="false"
       oposite_fuse="false"
       split_items="false"
       split_open="false"
       link_styles="false" />
    <inkscape:path-effect
       effect="mirror_symmetry"
       start_point="346.85374,153.19929"
       end_point="346.85374,167.83693"
       center_point="346.85374,160.51811"
       id="path-effect4"
       is_visible="true"
       lpeversion="1.2"
       lpesatellites=""
       mode="free"
       discard_orig_path="false"
       fuse_paths="true"
       oposite_fuse="false"
       split_items="false"
       split_open="false"
       link_styles="false" />
    <inkscape:path-effect
       effect="mirror_symmetry"
       start_point="347.28481,149.28434"
       end_point="347.28481,170.01122"
       center_point="347.28481,159.64778"
       id="path-effect3"
       is_visible="true"
       lpeversion="1.2"
       lpesatellites="#path4"
       mode="free"
       discard_orig_path="false"
       fuse_paths="false"
       oposite_fuse="false"
       split_items="true"
       split_open="false"
       link_styles="false" />
    <inkscape:path-effect
       effect="fillet_chamfer"
       id="path-effect1"
       is_visible="true"
       lpeversion="1"
       nodesatellites_param="F,0,1,1,0,0,0,1 @ F,0,0,1,0,10.095655,0,1 @ F,0,0,1,0,10,0,1 @ F,0,0,1,0,0,0,1 @ F,0,0,1,0,0,0,1 @ F,0,0,1,0,10,0,1 @ F,0,0,1,0,17.487346,0,1 @ F,0,0,1,0,0,0,1"
       radius="10"
       unit="px"
       method="auto"
       mode="F"
       chamfer_steps="1"
       flexible="false"
       use_knot_distance="true"
       apply_no_radius="true"
       apply_with_radius="true"
       only_selected="false"
       hide_knots="false" />
    <inkscape:path-effect
       effect="mirror_symmetry"
       start_point="330.00901,138.63286"
       end_point="329.79845,85.8685"
       center_point="329.90373,112.25068"
       id="path-effect17"
       is_visible="true"
       lpeversion="1.2"
       lpesatellites=""
       mode="free"
       discard_orig_path="false"
       fuse_paths="false"
       oposite_fuse="false"
       split_items="true"
       split_open="false"
       link_styles="false" />
    <inkscape:path-effect
       effect="mirror_symmetry"
       start_point="345.10882,137.15236"
       end_point="345.10882,84.388008"
       center_point="345.10882,110.77018"
       id="path-effect16"
       is_visible="true"
       lpeversion="1.2"
       lpesatellites=""
       mode="free"
       discard_orig_path="false"
       fuse_paths="false"
       oposite_fuse="false"
       split_items="false"
       split_open="false"
       link_styles="false" />
    <inkscape:path-effect
       effect="fillet_chamfer"
       id="path-effect15"
       is_visible="true"
       lpeversion="1"
       nodesatellites_param="F,0,0,1,0,0,0,1 @ F,0,0,1,0,0,0,1 @ F,0,0,1,0,0,0,1 @ F,0,0,1,0,0,0,1 | F,0,0,1,0,0,0,1 @ F,0,0,1,0,0,0,1 @ F,0,0,1,0,0,0,1 @ F,0,0,1,0,0,0,1 | F,0,0,1,0,0,0,1 @ F,0,0,1,0,0,0,1 @ F,0,0,1,0,0,0,1 @ F,0,0,1,0,0,0,1 | F,0,0,1,0,0,0,1 @ F,0,0,1,0,0,0,1 @ F,0,0,1,0,0,0,1 @ F,0,0,1,0,0,0,1 | F,0,1,1,0,14.294623,0,1 @ F,0,0,1,0,14.294623,0,1 @ F,0,0,1,0,0,0,1 @ F,0,0,1,0,0,0,1 @ F,0,0,1,0,0,0,1 @ F,0,0,1,0,0,0,1 @ F,0,0,1,0,0,0,1 @ F,0,0,1,0,0,0,1 @ F,0,0,1,0,0,0,1 @ F,0,0,1,0,0,0,1 @ F,0,0,1,0,0,0,1 @ F,0,0,1,0,0,0,1 @ F,0,0,1,0,0,0,1 @ F,0,0,1,0,0,0,1 @ F,0,0,1,0,0,0,1"
       radius="0"
       unit="px"
       method="auto"
       mode="F"
       chamfer_steps="1"
       flexible="false"
       use_knot_distance="true"
       apply_no_radius="true"
       apply_with_radius="true"
       only_selected="false"
       hide_knots="false" />
    <inkscape:path-effect
       effect="fillet_chamfer"
       id="path-effect14"
       is_visible="true"
       lpeversion="1"
       nodesatellites_param="F,0,0,1,0,0,0,1 @ F,0,0,1,0,0,0,1 @ F,0,0,1,0,0,0,1 @ F,0,0,1,0,0,0,1 | F,0,0,1,0,0,0,1 @ F,0,0,1,0,0,0,1 @ F,0,0,1,0,0,0,1 @ F,0,0,1,0,0,0,1 | F,0,0,1,0,0,0,1 @ F,0,0,1,0,0,0,1 @ F,0,0,1,0,0,0,1 @ F,0,0,1,0,0,0,1 | F,0,0,1,0,0,0,1 @ F,0,0,1,0,0,0,1 @ F,0,0,1,0,0,0,1 @ F,0,0,1,0,0,0,1 | F,0,0,1,0,0,0,1 @ F,0,0,1,0,0,0,1 @ F,0,0,1,0,0,0,1 @ F,0,0,1,0,0,0,1 @ F,0,0,1,0,0,0,1 @ F,0,0,1,0,0,0,1 @ F,0,0,1,0,0,0,1 @ F,0,0,1,0,0,0,1 @ F,0,0,1,0,0,0,1 @ F,0,0,1,0,0,0,1 @ F,0,0,1,0,0,0,1 @ F,0,0,1,0,0,0,1 @ F,0,0,1,0,0,0,1 @ F,0,0,1,0,0,0,1 @ F,0,0,1,0,0,0,1"
       radius="0"
       unit="px"
       method="auto"
       mode="F"
       chamfer_steps="1"
       flexible="false"
       use_knot_distance="true"
       apply_no_radius="true"
       apply_with_radius="true"
       only_selected="false"
       hide_knots="false" />
    <inkscape:path-effect
       effect="fillet_chamfer"
       id="path-effect8"
       is_visible="true"
       lpeversion="1"
       nodesatellites_param="F,0,0,1,0,10,0,1 @ F,0,0,1,0,10,0,1 @ F,0,0,1,0,10,0,1 @ F,0,0,1,0,10,0,1 @ F,0,0,1,0,10,0,1 @ F,0,0,1,0,10,0,1 @ F,0,0,1,0,10,0,1 @ F,0,0,1,0,10,0,1 @ F,0,0,1,0,10,0,1 @ F,0,0,1,0,10,0,1 @ F,0,0,1,0,10,0,1 @ F,0,0,1,0,10,0,1 @ F,0,0,1,0,10,0,1 @ F,0,0,1,0,10,0,1 @ F,0,0,1,0,10,0,1 @ F,0,0,1,0,10,0,1 @ F,0,0,1,0,10,0,1 @ F,0,0,1,0,10,0,1 @ F,0,0,1,0,10,0,1"
       radius="11"
       unit="px"
       method="auto"
       mode="F"
       chamfer_steps="1"
       flexible="false"
       use_knot_distance="true"
       apply_no_radius="true"
       apply_with_radius="true"
       only_selected="false"
       hide_knots="false" />
    <inkscape:path-effect
       effect="fillet_chamfer"
       id="path-effect7"
       nodesatellites_param="F,0,0,1,0,0,0,1 @ F,0,0,1,0,0,0,1 @ F,0,0,1,0,0,0,1 @ F,0,0,1,0,0,0,1 @ F,0,0,1,0,0,0,1 @ F,0,0,1,0,0,0,1 @ F,0,0,1,0,0,0,1 @ F,0,0,1,0,0,0,1 @ F,0,0,1,0,0,0,1 @ F,0,0,1,0,0,0,1 @ F,0,0,1,0,0,0,1 @ F,0,0,1,0,0,0,1 @ F,0,0,1,0,0,0,1 @ F,0,0,1,0,0,0,1 @ F,0,0,1,0,0,0,1 @ F,0,0,1,0,0,0,1 @ F,0,0,1,0,0,0,1 @ F,0,0,1,0,0,0,1 @ F,0,0,1,0,0,0,1"
       is_visible="true"
       lpeversion="1"
       radius="0"
       unit="px"
       method="auto"
       mode="F"
       chamfer_steps="1"
       flexible="false"
       use_knot_distance="true"
       apply_no_radius="true"
       apply_with_radius="true"
       only_selected="false"
       hide_knots="false" />
    <inkscape:path-effect
       effect="fillet_chamfer"
       id="path-effect6"
       is_visible="true"
       lpeversion="1"
       nodesatellites_param="F,0,0,1,0,0,0,1 @ F,0,0,1,0,0,0,1 @ F,0,0,1,0,0,0,1 @ F,0,0,1,0,0,0,1 @ F,0,0,1,0,0,0,1 @ F,0,0,1,0,0,0,1 @ F,0,0,1,0,0,0,1 @ F,0,0,1,0,0,0,1 @ F,0,0,1,0,0,0,1 @ F,0,0,1,0,0,0,1 @ F,0,0,1,0,0,0,1 @ F,0,0,1,0,0,0,1 @ F,0,0,1,0,0,0,1 @ F,0,0,1,0,0,0,1 @ F,0,0,1,0,0,0,1 @ F,0,0,1,0,0,0,1 @ F,0,0,1,0,0,0,1 @ F,0,0,1,0,0,0,1 @ F,0,0,1,0,0,0,1"
       radius="0"
       unit="px"
       method="auto"
       mode="F"
       chamfer_steps="1"
       flexible="false"
       use_knot_distance="true"
       apply_no_radius="true"
       apply_with_radius="true"
       only_selected="false"
       hide_knots="false" />
    <linearGradient
       id="swatch6"
       inkscape:swatch="solid">
      <stop
         style="stop-color:#000000;stop-opacity:1;"
         offset="0"
         id="stop6" />
    </linearGradient>
  </defs>
  <sodipodi:namedview
     id="namedview1"
     pagecolor="#ffffff"
     bordercolor="#000000"
     borderopacity="0.25"
     inkscape:showpageshadow="2"
     inkscape:pageopacity="0.0"
     inkscape:pagecheckerboard="0"
     inkscape:deskcolor="#d1d1d1"
     inkscape:zoom="0.84431428"
     inkscape:cx="368.34625"
     inkscape:cy="549.55839"
     inkscape:window-width="3840"
     inkscape:window-height="2054"
     inkscape:window-x="2869"
     inkscape:window-y="-11"
     inkscape:window-maximized="1"
     inkscape:current-layer="g1" />
  <g
     inkscape:groupmode="layer"
     inkscape:label="Image"
     id="g1">
    <path
       id="path21"
       style="display:inline;fill:#575452;fill-opacity:1;stroke:none;stroke-width:9.9;stroke-dasharray:none;stroke-opacity:1"
       d="m 45.1973,497.13933 c 0,9.38992 -7.61204,17.00197 -17.001963,17.00197 -9.389922,0 -17.001962,-7.61205 -17.001962,-17.00197 0,-9.38991 7.61204,-17.00196 17.001962,-17.00196 9.389923,0 17.001963,7.61205 17.001963,17.00196 z m 173.15759,88.64495 c 0,11.56219 -9.37301,20.93522 -20.93521,20.93522 -11.5622,0 -20.93521,-9.37303 -20.93521,-20.93522 0,-11.5622 9.37301,-20.93522 20.93521,-20.93522 11.5622,0 20.93521,9.37302 20.93521,20.93522 z M 670.45911,481.01151 c 0,11.81834 -9.58067,21.39901 -21.39901,21.39901 -11.81836,0 -21.39903,-9.58067 -21.39903,-21.39901 0,-11.81837 9.58066,-21.39904 21.39903,-21.39904 11.81834,0 21.39901,9.58068 21.39901,21.39904 z M 536.34617,592.26502 c 0,12.14215 -9.84315,21.9853 -21.98529,21.9853 -12.14215,0 -21.9853,-9.84315 -21.9853,-21.9853 0,-12.14214 9.84315,-21.9853 21.9853,-21.9853 12.14214,0 21.98529,9.84316 21.98529,21.9853 z m -365.02333,-472.748 343.40223,0.116 c 8.75358,-0.29082 22.06132,9.57131 25.24324,17.50914 12.32389,33.16293 6.9126,111.55634 6.42179,162.87107 18.20427,64.27667 39.28041,119.256 92.98956,161.921 -3.57727,2.48645 -6.78403,5.05522 -8.61631,7.92944 -120.69903,-40.24613 -129.62941,-54.81508 -145.93206,-70.85337 -10.28461,42.34569 -10.75634,98.77827 24.62352,171.77847 -2.86509,1.47091 -5.01504,1.28284 -9.30927,4.89746 -59.69578,-45.86829 -105.38907,-99.37431 -140.77703,-158.50141 -37.53203,63.11175 -87.60772,113.67987 -143.05098,158.88041 -1.27268,-2.81779 -4.80163,-6.0116 -9.38041,-9.3804 21.208,-61.76551 32.88032,-120.28891 15.24314,-168.84708 -49.9278,44.15354 -102.0647,86.88279 -176.918768,96.3563 -1.681505,-3.68934 -2.29189,-7.58598 -7.207012,-11.27535 49.998888,-47.81021 82.09325,-111.86165 109.08264,-178.2986 -2.13431,-58.57519 -10.84661,-125.80565 -0.33109,-167.73636 1.8991,-7.57271 16.70312,-17.18668 24.51681,-17.36672 z"
       sodipodi:nodetypes="ssssssssssssssssssssccccccccccccccccsc"
       inkscape:label="body" />
    <path
       style="display:inline;fill:#464342;fill-opacity:1;stroke:none;stroke-width:7.92;stroke-linecap:round;stroke-dasharray:none;stroke-opacity:1"
       d="m 242.9651,124.49065 c -123.33738,109.96078 -24.29154,181.82496 -38.6835,173.31147 -42.26319,41.61525 -81.3844,92.76331 -119.392922,140.12085 31.352192,-42.17229 51.627782,-88.3005 67.573082,-135.97526 0.98298,-53.72656 -9.9713,-124.12854 1.28247,-164.12109 1.08216,-4.17446 12.81176,-13.24992 18.78626,-13.28252 21.5486,-0.11758 50.79383,0.30323 70.43461,-0.0535 z"
       id="path18"
       sodipodi:nodetypes="cccccsc"
       inkscape:label="shadow" />
    <path
       id="path16"
       style="display:inline;fill:#000000;fill-opacity:1;stroke:#000000;stroke-width:9.9;stroke-dasharray:none;stroke-opacity:1"
       d="m 331.95429,139.82907 c -24.69024,17.2457 -28.64022,24.05326 -29.50663,27.10125 -2.36233,8.80729 9.18413,27.31193 29.66326,12.48521 20.59822,14.66575 31.9992,-3.93457 29.56657,-12.72305 -1.94873,-6.65311 -16.36362,-17.70748 -29.7232,-26.86341 z"
       sodipodi:nodetypes="ccccc"
       inkscape:label="heart" />
    <g
       id="g27"
       inkscape:label="crown splitter 1"
       style="display:inline"
       transform="matrix(0.99,0,0,0.99,3.4278837,42.848489)">
      <path
         style="display:inline;fill:none;stroke:#464342;stroke-width:7;stroke-dasharray:none;stroke-opacity:1"
         d="m 455.4294,260.68355 c 0.29057,37.94327 15.9881,80.25094 28.33104,107.2375"
         id="path23"
         sodipodi:nodetypes="cc"
         inkscape:label="crown splitter shadow" />
      <path
         style="fill:#000000;stroke:#000000;stroke-width:10;stroke-dasharray:none;stroke-opacity:1"
         d="m 463.1333,260.46014 c 0.29057,37.94327 13.61932,72.25629 25.96226,99.24285"
         id="path3"
         sodipodi:nodetypes="cc"
         inkscape:label="crown splitter"
         sodipodi:insensitive="true" />
    </g>
    <g
       id="g21"
       inkscape:label="crown splitter 2"
       style="display:inline"
       transform="matrix(0.99,0,0,0.99,3.4278837,42.848489)">
      <path
         style="fill:none;fill-opacity:1;stroke:#464342;stroke-width:7;stroke-dasharray:none;stroke-opacity:1"
         d="m 332.73912,259.404 c 0.67925,44.501 9.51853,84.69047 21.61517,124.95348"
         id="path19"
         sodipodi:nodetypes="cc"
         inkscape:label="crown splitter shadow" />
      <path
         style="fill:#000000;stroke:#000000;stroke-width:10;stroke-dasharray:none;stroke-opacity:1"
         d="m 341.40132,257.9016 c 0.69938,45.81928 8.48391,82.6212 20.13468,121.4003"
         id="path5"
         sodipodi:nodetypes="cc"
         inkscape:label="crown splitter" />
    </g>
    <g
       id="g22"
       inkscape:label="crown splitter 3"
       transform="matrix(0.99,0,0,0.99,-24.347546,44.506739)"
       style="display:inline;stroke:#464342;stroke-opacity:1">
      <path
         style="display:inline;fill:none;stroke:#464342;stroke-width:7;stroke-linecap:butt;stroke-dasharray:none;stroke-opacity:1"
         d="m 287.28694,260.01557 c -12.36313,37.88431 -42.21187,82.24683 -62.2735,112.43264"
         id="path27"
         sodipodi:nodetypes="cc"
         inkscape:label="crown splitter shadow"
         transform="translate(28.055989,-1.6749995)" />
      <path
         style="display:inline;fill:#000000;stroke:#000000;stroke-width:10;stroke-linecap:butt;stroke-dasharray:none;stroke-opacity:1"
         d="m 278.49248,258.58586 c -12.36313,37.88431 -34.51332,69.88473 -54.57495,100.07054"
         id="path25"
         sodipodi:nodetypes="cc"
         inkscape:label="crown splitter"
         transform="translate(28.055996,-1.6749848)" />
    </g>
    <path
       style="display:inline;fill:none;stroke:#000000;stroke-width:10;stroke-dasharray:none;stroke-opacity:1"
       d="m 143.63743,154.62898 c 7.52661,5.80804 20.76125,7.66837 26.27834,7.5908 l 176.93797,1.07906 176.93797,-1.07906 c 5.51709,0.0776 18.75173,-1.78276 26.27834,-7.5908"
       id="path4"
       sodipodi:nodetypes="ccc"
       inkscape:original-d="m 143.63743,154.62898 c 7.52661,5.80804 20.76125,7.66837 26.27834,7.5908 l 177.04265,1.0797"
       inkscape:path-effect="#path-effect4"
       inkscape:label="body splitter 1"
       transform="matrix(0.99,0,0,0.99,3.4278837,42.848489)" />
    <path
       style="display:inline;fill:#000000;stroke:#000000;stroke-width:10;stroke-dasharray:none;stroke-opacity:1"
       d="m 149.23353,256.42111 c 3.07866,0.0539 19.14931,1.36125 22.24814,1.40973 64.1179,1.00312 120.42554,5.1571 178.80259,4.14211 m 198.60685,-5.55184 c -3.07866,0.0539 -19.14931,1.36125 -22.24814,1.40973 -64.1179,1.00312 -120.42554,5.1571 -178.80259,4.14211"
       id="path2"
       sodipodi:nodetypes="csc"
       inkscape:label="body splitter 2"
       transform="matrix(0.99,0,0,-0.99,3.4278947,554.23672)"
       inkscape:original-d="m 149.23353,256.42111 c 3.07866,0.0539 19.14931,1.36125 22.24814,1.40973 64.1179,1.00312 120.42554,5.1571 178.80259,4.14211"
       inkscape:path-effect="#path-effect2" />
    <g
       id="g17"
       inkscape:label="eye 1"
       style="display:inline"
       transform="matrix(0.99,0,0,0.99,3.4278837,42.848489)">
      <ellipse
         style="display:inline;fill:none;stroke:#000000;stroke-width:10;stroke-dasharray:none;stroke-opacity:1"
         id="path7"
         cx="260.25244"
         cy="371.22845"
         rx="27.494982"
         ry="24.788164"
         transform="rotate(-30)"
         inkscape:label="eye outline" />
      <path
         style="fill:none;stroke:#000000;stroke-width:8;stroke-linecap:butt;stroke-dasharray:none;stroke-opacity:1"
         d="m 435.39136,189.9014 c -23.18345,17.61186 -43.12281,4.97145 -48.15581,2.09373"
         id="path13"
         sodipodi:nodetypes="cc"
         inkscape:label="some line" />
      <path
         style="display:inline;fill:none;stroke:#000000;stroke-width:8;stroke-linecap:round;stroke-dasharray:none;stroke-opacity:1"
         d="m 461.77238,208.6403 c -4.30925,-8.68078 -9.83049,-15.54357 -19.68107,-15.91236"
         id="path8"
         sodipodi:nodetypes="cc"
         inkscape:label="eyelash" />
      <path
         style="display:inline;fill:none;stroke:#000000;stroke-width:8;stroke-linecap:round;stroke-dasharray:none;stroke-opacity:1"
         d="m 436.43823,204.45283 c 1.20582,5.10028 3.15834,11.32077 1.04687,15.91236"
         id="path11"
         sodipodi:nodetypes="cc"
         inkscape:label="eyelash" />
      <path
         style="display:inline;fill:none;stroke:#000000;stroke-width:8;stroke-linecap:round;stroke-dasharray:none;stroke-opacity:1"
         d="m 420.73525,216.07304 c 4.0464,7.99033 1.69063,12.04678 -0.83749,16.74985"
         id="path12"
         sodipodi:nodetypes="cc"
         inkscape:label="eyelash" />
      <circle
         style="fill:#000000;fill-opacity:1;stroke:none;stroke-width:8;stroke-linecap:butt;stroke-dasharray:none;stroke-opacity:1"
         id="path15"
         cx="411.41815"
         cy="186.65613"
         r="10.154595"
         inkscape:label="eyeball" />
    </g>
    <g
       id="g18"
       inkscape:label="eye 2"
       style="display:inline"
       transform="matrix(0.99,0,0,0.99,3.4278837,42.848489)">
      <ellipse
         style="display:inline;fill:none;stroke:#000000;stroke-width:10;stroke-dasharray:none;stroke-opacity:1"
         id="ellipse1"
         cx="-303.69986"
         cy="46.314262"
         rx="27.494982"
         ry="24.788164"
         transform="matrix(-0.8660254,-0.5,-0.5,0.8660254,0,0)"
         inkscape:label="eye outline" />
      <path
         style="fill:none;stroke:#000000;stroke-width:8;stroke-linecap:butt;stroke-dasharray:none;stroke-opacity:1"
         d="m 263.39136,191.9014 c -23.18345,17.61186 -43.12281,4.97145 -48.15581,2.09373"
         id="path17"
         sodipodi:nodetypes="cc"
         inkscape:label="some line" />
      <path
         style="fill:#000000;stroke:#000000;stroke-width:8;stroke-linecap:round;stroke-dasharray:none;stroke-opacity:1"
         d="m 211.11807,192.75998 c -6.71156,4.09015 -13.42312,8.21656 -20.13468,19.24639"
         id="path1"
         sodipodi:nodetypes="cc"
         inkscape:label="eyelash" />
      <path
         style="fill:#000000;stroke:#000000;stroke-width:8;stroke-linecap:round;stroke-dasharray:none;stroke-opacity:1"
         d="m 213.35119,203.9294 c -4.97756,4.2975 -8.75765,9.10821 -9.84053,15.07486"
         id="path9"
         sodipodi:nodetypes="cc"
         inkscape:label="eyelash" />
      <path
         style="fill:#000000;stroke:#000000;stroke-width:8;stroke-linecap:round;stroke-dasharray:none;stroke-opacity:1"
         d="m 223.61047,212.93244 c -1.44408,3.52608 -4.60647,6.36484 -4.39683,10.88741"
         id="path10"
         sodipodi:nodetypes="cc"
         inkscape:label="eyelash" />
      <circle
         style="fill:#000000;fill-opacity:1;stroke:none;stroke-width:8;stroke-linecap:butt;stroke-dasharray:none;stroke-opacity:1"
         id="circle10"
         cx="240.3011"
         cy="188.43272"
         r="10.154595"
         inkscape:label="eyeball" />
    </g>
    <path
       id="path20"
       style="display:inline;fill:none;fill-opacity:1;stroke:#000000;stroke-width:9.9;stroke-dasharray:none;stroke-opacity:1"
       d="m 47.1773,497.13933 c 0,9.38992 -7.61204,17.00197 -17.001963,17.00197 -9.389922,0 -17.001962,-7.61205 -17.001962,-17.00197 0,-9.38991 7.61204,-17.00196 17.001962,-17.00196 9.389923,0 17.001963,7.61205 17.001963,17.00196 z m 173.15759,88.64495 c 0,11.56219 -9.37301,20.93522 -20.93521,20.93522 -11.5622,0 -20.93521,-9.37303 -20.93521,-20.93522 0,-11.5622 9.37301,-20.93522 20.93521,-20.93522 11.5622,0 20.93521,9.37302 20.93521,20.93522 z M 672.43911,481.01151 c 0,11.81834 -9.58067,21.39901 -21.39901,21.39901 -11.81836,0 -21.39903,-9.58067 -21.39903,-21.39901 0,-11.81837 9.58066,-21.39904 21.39903,-21.39904 11.81834,0 21.39901,9.58068 21.39901,21.39904 z M 538.32617,592.26502 c 0,12.14215 -9.84315,21.9853 -21.98529,21.9853 -12.14215,0 -21.9853,-9.84315 -21.9853,-21.9853 0,-12.14214 9.84315,-21.9853 21.9853,-21.9853 12.14214,0 21.98529,9.84316 21.98529,21.9853 z m -365.02333,-472.748 343.40223,0.116 c 8.75358,-0.29082 22.06132,9.57131 25.24324,17.50914 12.32389,33.16293 6.9126,111.55634 6.42179,162.87107 18.20427,64.27667 39.28041,119.256 92.98956,161.921 -3.57727,2.48645 -6.78403,5.05522 -8.61631,7.92944 -120.69903,-40.24613 -129.62941,-54.81508 -145.93206,-70.85337 -10.28461,42.34569 -10.75634,98.77827 24.62352,171.77847 -2.86509,1.47091 -5.01504,1.28284 -9.30927,4.89746 -59.69578,-45.86829 -105.38907,-99.37431 -140.77703,-158.50141 -37.53203,63.11175 -87.60772,113.67987 -143.05098,158.88041 -1.27268,-2.81779 -4.80163,-6.0116 -9.38041,-9.3804 21.208,-61.76551 32.88032,-120.28891 15.24314,-168.84708 -49.9278,44.15354 -102.0647,86.88279 -176.918768,96.3563 -1.681505,-3.68934 -2.29189,-7.58598 -7.207012,-11.27535 49.998888,-47.81021 82.09325,-111.86165 109.08264,-178.2986 -2.13431,-58.57519 -10.84661,-125.80565 -0.33109,-167.73636 1.8991,-7.57271 16.70312,-17.18668 24.51681,-17.36672 z"
       sodipodi:nodetypes="ssssssssssssssssssssccccccccccccccccsc"
       inkscape:label="body stroke" />
  </g>
</svg>
