<?xml version="1.0" encoding="UTF-8"?>
<!-- Created with Inkscape (http://www.inkscape.org/) -->
<svg width="688" height="688" version="1.1" viewBox="0 0 688 688" xmlns="http://www.w3.org/2000/svg">
 <path d="m42.191 458.88c0 9.4848-7.6889 17.174-17.174 17.174s-17.174-7.6889-17.174-17.174 7.6889-17.174 17.174-17.174 17.174 7.6889 17.174 17.174zm174.91 89.54c0 11.679-9.4677 21.147-21.147 21.147s-21.147-9.4677-21.147-21.147 9.4677-21.147 21.147-21.147 21.147 9.4677 21.147 21.147zm456.67-105.83c0 11.938-9.6774 21.615-21.615 21.615s-21.615-9.6774-21.615-21.615c0-11.938 9.6774-21.615 21.615-21.615 11.938 0 21.615 9.6774 21.615 21.615zm-135.47 112.38c0 12.265-9.9426 22.207-22.207 22.207s-22.207-9.9426-22.207-22.207 9.9426-22.207 22.207-22.207 22.207 9.9426 22.207 22.207zm-368.71-477.52 346.87 0.11717c8.842-0.29376 22.284 9.668 25.498 17.686 12.448 33.498 6.9824 112.68 6.4867 164.52 18.388 64.926 39.677 120.46 93.929 163.56-3.6134 2.5116-6.8526 5.1063-8.7033 8.0095-121.92-40.653-130.94-55.369-147.41-71.569-10.388 42.773-10.865 99.776 24.872 173.51-2.894 1.4858-5.0657 1.2958-9.4033 4.9469-60.299-46.332-106.45-100.38-142.2-160.1-37.911 63.749-88.493 114.83-144.5 160.49-1.2855-2.8462-4.8501-6.0723-9.4752-9.4751 21.422-62.389 33.212-121.5 15.397-170.55-50.432 44.6-103.1 87.76-178.71 97.33-1.6985-3.7266-2.315-7.6626-7.2798-11.389 50.504-48.293 82.922-112.99 110.18-180.1-2.1559-59.167-10.956-127.08-0.33443-169.43 1.9183-7.6492 16.872-17.36 24.764-17.542z" fill="#575452"/>
 <path d="m241.96 82.467c-124.58 111.07-24.537 183.66-39.074 175.06-42.69 42.036-82.206 93.7-120.6 141.54 31.669-42.598 52.149-89.192 68.256-137.35 0.99291-54.269-10.072-125.38 1.2954-165.78 1.0931-4.2166 12.941-13.384 18.976-13.417 21.766-0.11877 51.307 0.30629 71.146-0.054z" fill="#464342"/>
 <path d="m331.84 97.96c-24.94 17.42-28.93 24.296-29.805 27.375-2.3862 8.8962 9.2769 27.588 29.963 12.611 20.806 14.814 32.322-3.9743 29.865-12.852-1.9684-6.7203-30.023-27.134-30.023-27.134z" stroke="#000" stroke-width="10"/>
 <path d="m455.43 260.68c0.29057 37.943 15.988 80.251 28.331 107.24" fill="none" stroke="#464342" stroke-width="7"/>
 <path d="m463.13 260.46c0.29057 37.943 13.619 72.256 25.962 99.243" stroke="#000" stroke-width="10"/>
 <path d="m332.74 259.4c0.67925 44.501 9.5185 84.69 21.615 124.95" fill="none" stroke="#464342" stroke-width="7"/>
 <path d="m341.4 257.9c0.69938 45.819 8.4839 82.621 20.135 121.4" stroke="#000" stroke-width="10"/>
 <g transform="translate(-28.056 1.675)">
  <path transform="translate(28.056 -1.675)" d="m287.29 260.02c-12.363 37.884-42.212 82.247-62.274 112.43" fill="none" stroke="#464342" stroke-width="7"/>
  <path transform="translate(28.056 -1.675)" d="m278.49 258.59c-12.363 37.884-34.513 69.885-54.575 100.07" stroke="#000" stroke-width="10"/>
 </g>
 <path d="m143.64 154.63c7.5266 5.808 20.761 7.6684 26.278 7.5908l176.94 1.0791 176.94-1.0791c5.5171 0.0776 18.752-1.7828 26.278-7.5908" fill="none" stroke="#000" stroke-width="10"/>
 <path transform="matrix(1 0 0 -1 1.12e-5 516.55)" d="m149.23 256.42c3.0787 0.0539 19.149 1.3612 22.248 1.4097 64.118 1.0031 120.43 5.1571 178.8 4.1421m198.61-5.5518c-3.0787 0.0539-19.149 1.3612-22.248 1.4097-64.118 1.0031-120.43 5.1571-178.8 4.1421" stroke="#000" stroke-width="10"/>
 <g fill="none" stroke="#000">
  <ellipse transform="rotate(-30)" cx="260.25" cy="371.23" rx="27.495" ry="24.788" stroke-width="10"/>
  <path d="m435.39 189.9c-23.183 17.612-43.123 4.9714-48.156 2.0937" stroke-width="8"/>
  <g stroke-linecap="round" stroke-width="8">
   <path d="m461.77 208.64c-4.3092-8.6808-9.8305-15.544-19.681-15.912"/>
   <path d="m436.44 204.45c1.2058 5.1003 3.1583 11.321 1.0469 15.912"/>
   <path d="m420.74 216.07c4.0464 7.9903 1.6906 12.047-0.83749 16.75"/>
  </g>
 </g>
 <circle cx="411.42" cy="186.66" r="10.155"/>
 <g stroke="#000">
  <ellipse transform="matrix(-.86603 -.5 -.5 .86603 0 0)" cx="-303.7" cy="46.314" rx="27.495" ry="24.788" fill="none" stroke-width="10"/>
  <path d="m263.39 191.9c-23.183 17.612-43.123 4.9714-48.156 2.0937" fill="none" stroke-width="8"/>
  <g stroke-linecap="round" stroke-width="8">
   <path d="m211.12 192.76c-6.7116 4.0902-13.423 8.2166-20.135 19.246"/>
   <path d="m213.35 203.93c-4.9776 4.2975-8.7576 9.1082-9.8405 15.075"/>
   <path d="m223.61 212.93c-1.4441 3.5261-4.6065 6.3648-4.3968 10.887"/>
  </g>
 </g>
 <circle cx="240.3" cy="188.43" r="10.155"/>
 <path d="m44.191 458.88c0 9.4848-7.6889 17.174-17.174 17.174s-17.174-7.6889-17.174-17.174 7.6889-17.174 17.174-17.174 17.174 7.6889 17.174 17.174zm174.91 89.54c0 11.679-9.4677 21.147-21.147 21.147s-21.147-9.4677-21.147-21.147 9.4677-21.147 21.147-21.147 21.147 9.4677 21.147 21.147zm456.67-105.83c0 11.938-9.6774 21.615-21.615 21.615s-21.615-9.6774-21.615-21.615c0-11.938 9.6774-21.615 21.615-21.615 11.938 0 21.615 9.6774 21.615 21.615zm-135.47 112.38c0 12.265-9.9426 22.207-22.207 22.207s-22.207-9.9426-22.207-22.207 9.9426-22.207 22.207-22.207 22.207 9.9426 22.207 22.207zm-368.71-477.52 346.87 0.11717c8.842-0.29376 22.284 9.668 25.498 17.686 12.448 33.498 6.9824 112.68 6.4867 164.52 18.388 64.926 39.677 120.46 93.929 163.56-3.6134 2.5116-6.8526 5.1063-8.7033 8.0095-121.92-40.653-130.94-55.369-147.41-71.569-10.388 42.773-10.865 99.776 24.872 173.51-2.894 1.4858-5.0657 1.2958-9.4033 4.9469-60.299-46.332-106.45-100.38-142.2-160.1-37.911 63.749-88.493 114.83-144.5 160.49-1.2855-2.8462-4.8501-6.0723-9.4752-9.4751 21.422-62.389 33.212-121.5 15.397-170.55-50.432 44.6-103.1 87.76-178.71 97.33-1.6985-3.7266-2.315-7.6626-7.2798-11.389 50.504-48.293 82.922-112.99 110.18-180.1-2.1559-59.167-10.956-127.08-0.33443-169.43 1.9183-7.6492 16.872-17.36 24.764-17.542z" fill="none" stroke="#000" stroke-width="10"/>
</svg>
