<?xml version="1.0" encoding="UTF-8"?>
<!-- Created with Inkscape (http://www.inkscape.org/) -->
<svg id="svg1" width="688" height="688" version="1.1" viewBox="0 0 688 688" xmlns="http://www.w3.org/2000/svg">
 <g id="g1">
  <path id="path2" d="m570.77 89.31c-11.066-11.064-20.463 7.534-21.05 7.4882-3.8067-0.35206-8.2464-0.38507-14.654-1.0151-15.26-1.5003-37.891 4.2586-50.605 25.892-6.8048 11.369-7.7191 25.539-2.5149 38.978-41.279-17.359-90.725-9.2555-124.34 24.363-28.112 28.226-38.856 68.748-29.161 107.39l-0.79135-0.11463c-55.322-7.6897-127.39-16.957-217.83 64.093-10.374 9.2968-10.289 25.37-0.4378 35.221l202.21 202.21c9.8517 9.8517 25.925 9.9364 35.221-0.43779 81.049-90.442 71.784-162.51 64.094-217.83l-0.28174-1.323c38.641 9.6966 79.327-0.51754 107.55-28.631 40.401-40.402 44.184-101.77 10.963-146.24 14.82 3.0228 26.022-1.8421 34.764-7.2976 9.6618-6.0292 29.141-34.666 21.246-47.103-5.5444-5.3243-57.472 9.9473-59.288 2.2663-1.6684-7.0568-2.0142-9.1599-2.9113-13.438-1.2536-5.9777 55.986-9.3758 51.856-14.744-1.5972-2.6995-8.4492-7.673-6.7037-8.8665 4.6197-6.2018 12.549-13.099 2.6655-20.86z" fill="#575452"/>
  <path id="path10" d="m545.38 275.58c-5.0779 12.387-69.192 157.82-226.63 16.617-40.138 50.944 78.016 96.173 47.553 276.3 43.941-56.868 48.06-121.27 43.134-187.38l84.146-13.435c22.733-27.048 57.221-53.885 51.796-92.101z" fill="#464342"/>
  <path id="path11" d="m581.87 160.35c-26.406 37.88-54.262 20.518-78.414 7.3934l28.5 37.5 38-15c6.0847-12.466 18.242-12.462 11.914-29.893z" fill="#464342"/>
  <path id="path3" d="m325.65 289.55c22.839 36.385 52.479 64.836 86.621 88.035" fill="none" stroke="#000" stroke-width="10"/>
  <path id="path9" d="m479.62 158.91c19.99 11.165 37.746 24.909 51.619 43.134" fill="none" stroke="#000" stroke-width="10"/>
  <path id="path8" d="m466.01 262.32c-5.0189 22.437-30.765 45.314-45.52 40.747-14.296-3.3525-26.191-18.963-26.958-30.494-1.9658-29.531 39.686-44.828 64.7-35.709" fill="none" stroke="#000" stroke-linecap="round" stroke-width="10"/>
  <path id="path7" d="m350.75 284.24c23.902 14.281 44.796 31.571 63.993 50.558" fill="none" stroke="#000" stroke-linecap="round" stroke-width="10"/>
  <circle id="path6" transform="rotate(45)" cx="462.23" cy="-162.08" r="9.8995"/>
  <circle id="circle6" transform="rotate(45)" cx="526.22" cy="-167.38" r="9.8995"/>
  <path id="path4" d="m520.27 277.06c1.8191-11.955 2.5912-24.218-3.5-38.5" fill="none" stroke="#000" stroke-linecap="round" stroke-width="10"/>
  <path id="path5" d="m423.21 175.75c11.085-1.1735 21.274 2.1289 31.375 5.875" fill="none" stroke="#000" stroke-linecap="round" stroke-width="10"/>
  <path id="path1" d="m570.24 89.84c-11.066-11.064-20.463 7.534-21.05 7.4882-3.8067-0.35206-8.2464-0.38507-14.654-1.0151-15.26-1.5003-37.891 4.2586-50.605 25.892-6.8048 11.369-7.7191 25.539-2.5149 38.978-41.279-17.359-90.725-9.2555-124.34 24.363-28.112 28.226-38.856 68.748-29.161 107.39l-0.79135-0.11463c-55.322-7.6897-127.39-16.957-217.83 64.093-10.374 9.2968-10.289 25.37-0.43779 35.221l202.21 202.21c9.8517 9.8517 25.925 9.9364 35.221-0.43779 81.049-90.442 71.784-162.51 64.094-217.83l-0.28174-1.323c38.641 9.6966 79.327-0.51754 107.55-28.631 40.401-40.402 44.184-101.77 10.963-146.24 14.82 3.0228 26.022-1.8421 34.764-7.2976 9.6618-6.0292 29.141-34.666 21.246-47.103-5.5444-5.3243-57.472 9.9473-59.288 2.2663-1.6684-7.0568-2.0142-9.1599-2.9113-13.438-1.2536-5.9777 55.986-9.3758 51.856-14.744-1.5972-2.6995-8.4492-7.673-6.7037-8.8665 4.6197-6.2018 12.549-13.099 2.6655-20.86z" fill="none" stroke="#000" stroke-width="10"/>
 </g>
</svg>
