<?xml version="1.0" encoding="UTF-8"?>
<!-- Created with Inkscape (http://www.inkscape.org/) -->
<svg width="688" height="688" version="1.1" viewBox="0 0 688 688" xmlns="http://www.w3.org/2000/svg">
 <g>
  <g>
   <path d="m320.24 73.442c-15.649 0.0012-9.1425 19.797-9.5898 20.18-2.9407 2.4428-6.1034 5.5588-11.08 9.6445-11.851 9.7296-23.782 29.804-17.475 54.092 3.2273 12.851 12.601 23.517 25.783 29.34-41.463 16.913-70.697 57.608-70.697 105.15 0.08 39.837 21.137 76.088 55.314 96.555l-0.64063 0.47851c-44.556 33.681-102.07 78.089-108.71 199.35-0.76184 13.909 10.663 25.215 24.596 25.215h285.97c13.932 0 25.358-11.305 24.596-25.215-6.6416-121.26-64.153-165.67-108.71-199.35l-1.1348-0.73632c34.179-20.466 55.726-56.458 55.807-96.297-1.6e-4 -57.136-40.723-103.21-95.656-111.16 12.616-8.3416 17.098-19.703 19.422-29.742 2.5686-11.095-3.9073-45.118-18.283-48.33-7.6853 0.15561-33.605 47.673-40.32 43.525-6.1696-3.8101-7.9012-5.0528-11.561-7.4434-5.1133-3.3405 32.959-46.218 26.242-47.094-3.0382-0.77948-11.4 0.54882-11.01-1.5293-1.1188-7.6519-0.38885-18.136-12.865-16.635z" fill="#fff"/>
   <path d="m434 223.11c5.168 12.349 62.668 160.52-148.5 172 7.6412 64.405 123.17 12.839 229 161.75-9.1409-71.283-51.767-119.73-102-163l50-69c-3.0509-35.2 2.3591-78.564-28.5-101.75z" fill="#d3d3d6"/>
   <path d="m378.32 115.83c8.1136 45.457-23.86 52.877-50.219 60.675l46.669 6.364 16.263-37.477c-4.5123-13.117 4.087-21.711-12.713-29.562z" fill="#d3d3d6"/>
  </g>
  <g fill="none" stroke="#000" stroke-width="10">
   <path d="m288.5 388.36c41.878 9.5788 82.954 8.738 123.5 1"/>
   <path d="m305 187.11c22.03-6.2404 44.304-9.0772 67-6"/>
   <path d="m368.5 269.86c12.317 19.414 10.288 53.796-3.375 61-12.479 7.738-31.928 5.1111-40.625-2.5-22.271-19.491-3.636-59.761 20.5-71" stroke-linecap="round"/>
   <path d="m302.5 366.86c27-6.803 54-9.3516 81-9.5" stroke-linecap="round"/>
  </g>
  <circle cx="315.72" cy="251.81" r="9.8995"/>
  <circle cx="379.72" cy="246.51" r="9.8995"/>
  <g fill="none" stroke="#000" stroke-width="10">
   <path d="m417.29 241.91c-7.1673-9.7398-15.293-18.957-29.698-24.749" stroke-linecap="round"/>
   <path d="m277.02 238.9c7.0083-8.6679 16.549-13.538 26.34-18.031" stroke-linecap="round"/>
   <path d="m320.24 74.192c-15.649 0.0012-9.1425 19.797-9.5898 20.18-2.9407 2.4428-6.1034 5.5588-11.08 9.6445-11.851 9.7296-23.782 29.804-17.475 54.092 3.2273 12.851 12.601 23.517 25.783 29.34-41.463 16.913-70.697 57.608-70.697 105.15 0.08 39.837 21.137 76.088 55.314 96.555l-0.64063 0.47851c-44.556 33.681-102.07 78.089-108.71 199.35-0.76184 13.909 10.663 25.215 24.596 25.215h285.97c13.932 0 25.358-11.305 24.596-25.215-6.6416-121.26-64.153-165.67-108.71-199.35l-1.1348-0.73632c34.179-20.466 55.726-56.458 55.807-96.297-1.6e-4 -57.136-40.723-103.21-95.656-111.16 12.616-8.3416 17.098-19.703 19.422-29.742 2.5686-11.095-3.9073-45.118-18.283-48.33-7.6853 0.15561-33.605 47.673-40.32 43.525-6.1696-3.8101-7.9012-5.0528-11.561-7.4434-5.1133-3.3405 32.959-46.218 26.242-47.094-3.0382-0.77948-11.4 0.54882-11.01-1.5293-1.1188-7.6519-0.38885-18.136-12.865-16.635z"/>
  </g>
 </g>
</svg>
