<?xml version="1.0" encoding="UTF-8"?>
<!-- Created with Inkscape (http://www.inkscape.org/) -->
<svg width="688" height="688" version="1.1" viewBox="0 0 182.03 182.03" xml:space="preserve" xmlns="http://www.w3.org/2000/svg"><g><path transform="matrix(-1 0 0 1 183 1.0583)" d="m31.682 94.216c-2.7141 41.58 23.886 67.068 59.819 67.077h-4e-6c35.932-9e-3 62.533-25.497 59.819-67.077" fill="#474443" stroke="#000" stroke-linecap="round" stroke-width="2.6458"/><circle cx="91.017" cy="91.017" r="60.457" fill="#575452"/><path d="m91.678 151.47c42.37-13.306 56.048-53.572 57.282-76.266 4.1356 17.71-0.54043 47.74-18.653 63.566-12.494 8.6922-25.637 9.8146-38.629 12.7z" fill="#474443"/></g><circle cx="91.017" cy="91.017" r="60.457" fill="none" stroke="#000" stroke-linecap="round" stroke-width="2.6458"/><circle cx="91.017" cy="91.017" r="46.157" fill="#575452" stroke="#000" stroke-width="2.6458"/><g transform="translate(36.853 7.2019)"><circle cx="75.238" cy="66.348" r="3.622"/><path d="m64.673 68.746c9.6513-9.7035 5.6583-20.293 13.698-13.316" fill="none" stroke="#000" stroke-linecap="round" stroke-width="2.686"/></g><g transform="matrix(-1 0 0 1 145.18 7.2019)"><circle cx="75.238" cy="66.348" r="3.622"/><path d="m64.673 68.746c9.6513-9.7035 5.6583-20.293 13.698-13.316" fill="none" stroke="#000" stroke-linecap="round" stroke-width="2.686"/></g><g fill="none" stroke="#000" stroke-linecap="round" stroke-width="2.6458"><path d="m77.811 116.14c21.079 6.7034 39.111-8.8176 40.335-18.768"/><path d="m111.44 94.619c0.32927 0.04116 14.488 5.0213 14.488 5.0213"/></g><path d="m78.509 85.572c-6.641 1.5055-9.2822 2.618-13.201 6.7447 0.9995 9.8966 0.38619 12.015-4.0745 18.743 7.3857 1.1934 8.0754-6.0446 26.193-8.9639 0 0 4.416-0.47084 2.9513-12.26" fill="none" stroke="#000" stroke-linecap="round" stroke-linejoin="round" stroke-width="2.6458"/></svg>
