<?xml version="1.0" encoding="UTF-8"?>
<!-- Created with Inkscape (http://www.inkscape.org/) -->
<svg id="svg1" width="688" height="688" version="1.1" viewBox="0 0 688 688" xmlns="http://www.w3.org/2000/svg">
 <g id="g1">
  <path id="path1" d="m461.51 84.451c-29.786 12.07-59.78 23.972-72.559 49.957l2.5977 1.4844c-32.57-3.6416-97.39-2.834-114.35 2.5469-4.2867 1.3601-8.849 3.485-13.471 5.9727-20.831-24.31-40.854-49.429-84.371-51.053 9.4076 29.205-1.9321 63.31 50.355 79.262-28.906 34.989-42.442 91.601 15.459 154.14 9.7168 121.36-87.423 155.64-89.996 238.87v33.92a26.639 26.639 45 0 0 26.639 26.639h320.16a26.639 26.639 135 0 0 26.639-26.639v-33.92c-2.5735-83.227-99.711-117.51-89.994-238.87 66.107-71.399 39.095-135.01 2.3945-167.59 10.853-18.202 26.869-27.804 20.496-74.715z" fill="#fff"/>
  <path id="path12" d="m447.24 169.8c21.322 75.02-8.9554 129.41-38.657 184.37 53.921 103.14-5.4244 186.51-46.984 272.98l161.17-3.5684c30.041-109.02-78.961-170.44-83.857-288.44 63.49-104.11 32.312-131.82 8.3262-165.34z" fill="#d3d3d6"/>
  <path id="path14" d="m427.48 145.51c10.235 3.1491 34.655-58.912 34.484-61.399-0.0682-0.99205-4.878 79.32-18.924 76.958z" fill="#d3d3d6"/>
  <path id="path15" d="m251.06 163.3c-22.714 13.794-66.727-43.736-63.873-71.065-18.896 21.3 16.499 84.181 47.004 79.759z" fill="#d3d3d6"/>
  <g id="g17">
   <path id="path16" d="m407.39 358.03c-25.416 45.336-53.473 86.711-117.76 73.747 26.008 14.245 61.68 11.094 95.157 11.895 20.49-27.251 16.185-56.982 22.6-85.641z" fill="#d3d3d6"/>
   <ellipse id="path8" transform="rotate(-22.5)" cx="139.11" cy="498.08" rx="10.952" ry="15.124"/>
   <ellipse id="ellipse8" transform="matrix(-.92388 -.38268 -.38268 .92388 0 0)" cx="-499.46" cy="233.58" rx="10.952" ry="15.124"/>
   <path id="path5" transform="translate(2)" d="m244.52 327.71c11.924 6.0883 32.585 34.8 35.9 66.304 0.24316 21.703 0.66413 32.925 11.108 42.49 15.103 9.8844 31.54 8.0678 48.768 8.3262m94.971-117.12c-11.924 6.0883-32.585 34.8-35.9 66.304-0.24316 21.703-0.66413 32.925-11.108 42.49-15.103 9.8844-31.54 8.0678-48.768 8.3262" fill="none" stroke="#000" stroke-width="10" style="paint-order:normal"/>
   <path id="path18" d="m277 368.75c47.539-11.302 91.169-9.2463 131.14 0" fill="none" stroke="#000" stroke-width="10"/>
  </g>
  <path id="path7" d="m390.94 131.96c17.26 6.6131 33.839 13.181 48.462 25.875" fill="none" stroke="#000" stroke-width="10"/>
  <g id="g10">
   <ellipse id="path9" transform="matrix(.92339 -.38385 .38152 .92436 0 0)" cx="271.37" cy="393.89" rx="19.778" ry="16.835" fill="none" stroke="#000" stroke-width="6.2194"/>
   <circle id="path10" cx="407.53" cy="258.34" r="8.4211"/>
  </g>
  <g id="g11" transform="translate(-134.15)">
   <ellipse id="ellipse10" transform="matrix(-.92339 -.38385 -.38152 .92436 0 0)" cx="-469.7" cy="86.148" rx="19.778" ry="16.835" fill="none" stroke="#000" stroke-width="6.2194"/>
   <circle id="circle10" transform="scale(-1,1)" cx="-394.32" cy="258.83" r="8.4211"/>
  </g>
  <path id="path11" d="m461.51 84.451c-29.786 12.07-59.78 23.972-72.559 49.957l2.5977 1.4844c-32.57-3.6416-97.39-2.834-114.35 2.5469-4.2867 1.3601-8.849 3.485-13.471 5.9727-20.831-24.31-40.854-49.429-84.371-51.053 9.4076 29.205-1.9321 63.31 50.355 79.262-28.906 34.989-42.442 91.601 15.459 154.14 9.7168 121.36-87.423 155.64-89.996 238.87v33.92a26.639 26.639 45 0 0 26.639 26.639h320.16a26.639 26.639 135 0 0 26.639-26.639v-33.92c-2.5735-83.227-99.711-117.51-89.994-238.87 66.107-71.399 39.095-135.01 2.3945-167.59 10.853-18.202 26.869-27.804 20.496-74.715z" fill="none" stroke="#000" stroke-width="10"/>
  <path id="path3" transform="translate(8.6236 -3.4868)" d="m192.61 182.93c12.483 7.3262 23.334 14.827 47.223 15.187 3.1833 0.0479 8.1836-0.9477 11.168-2.0582l25.359-9.4358c2.9844-1.1105 7.2321-0.18772 9.5485 1.9971 5.7166 5.3919 11.73 9.582 25.287 8.0145 3.1616-0.36556 6.5134-3.5076 8.7631-5.6999 2.0791-2.0261 4.8521-3.9045 7.3648-5.9169 1.5896-1.2731 2.6349-0.78263 2.7406 1.251 0.18775 3.6131 0.93076 7.2311 1.5784 10.613 0.59876 3.1263 2.9221 4.0572 5.1472 1.782 3.906-3.994 7.1433-8.1011 11.284-10.015 2.8612-1.3225 6.8345 1.1757 8.355 3.9735 1.3827 2.5442 4.992 3.9155 8.0204 2.9319 6.3668-2.0678 10.882-4.1184 15.633-7.2016 2.6706-1.733 5.3159-0.75005 6.9307 1.9825 4.1804 7.0741 12.167 11.43 19.811 16.03 2.7279 1.6415 3.4777 0.89512 1.8276-1.8282-2.6222-4.3276-5.1413-8.8687-7.4476-13.618-1.3908-2.8642-3.4562-7.5998-4.5532-10.589-7.8958-21.513-9.7724-46.921-25.93-61.716-2.5122-2.3004-7.5567-3.2477-10.87-2.4449-11.904 2.8839-22.712 7.108-26.361 20.082-16.025-25.744-24.956-6.0795-35.746 1.6822-9.9178-16.988-22.917-28.692-42.895-2.5232-10.403 27.58-33.789 46.003-62.24 47.521z" fill="#fff" stroke="#000" stroke-width="7" style="paint-order:normal"/>
 </g>
</svg>
