<?xml version="1.0" encoding="UTF-8"?>
<!-- Created with Inkscape (http://www.inkscape.org/) -->
<svg width="688" height="688" version="1.1" viewBox="0 0 688 688" xmlns="http://www.w3.org/2000/svg">
 <g>
  <path transform="translate(0 -25.205)" d="m335.22 119.71c-62.684 0.0649-115.53 43.277-123.33 100.85-131.55-20.534-227.2 185.86-63.02 240.06v143.78a34.82 34.82 45 0 0 34.82 34.82h337.44a34.82 34.82 135 0 0 34.82-34.82v-144.04c137.3-63.867 45.927-259.08-97.406-210.96 8.5628-58.592-38.742-129.7-123.32-129.7z" fill="#fff" stroke="#000" stroke-width="10.377"/>
  <path d="m611.38 273.94c-6.368 66.599-54.393 113.35-127.27 151.44 5.2198 11.018 22.314 27.559 26.287 37.424 27.307 67.813-28.916 131.76-59.592 150.73 32.755-2.1558 64.69-0.83822 96.448-7.9778 14.257-56.578 4.1065-111.75 5.2505-168.06 101.92-48.722 62.249-107.41 58.878-163.55z" fill="#d3d3d6"/>
  <g fill="none" stroke-width="10">
   <path d="m456.48 214.72c-67.628 35.224-94.308 66.027-115.68 121.32" stroke="#d3d3d6"/>
   <path d="m216.43 184.88c26.696 17.585 73.819 28.085 130.35 149.87" stroke="#d3d3d6"/>
   <g stroke="#000">
    <path d="m461.21 222.8c-78.168 28.684-137.27 125.83-125.79 202.21"/>
    <path d="m211.41 192.96c40.282 26.418 78.489 32.509 132.42 155.99"/>
    <path transform="translate(0 -25.205)" d="m151.81 461.96c62.78-15.824 140.5-13.888 201.2-14.093m200.01 14.093c-62.78-15.824-140.5-13.888-201.2-14.093"/>
    <path transform="translate(0 78.795)" d="m151.81 461.96c62.78-15.824 140.5-13.888 201.2-14.093m200.01 14.093c-62.78-15.824-140.5-13.888-201.2-14.093"/>
   </g>
  </g>
  <g transform="translate(0 -25.205)">
   <path d="m228.76 511.5c19.272-16.635 40.705-21.014 62.27-24.645" fill="none" stroke="#000" stroke-linecap="round" stroke-width="15"/>
   <ellipse transform="rotate(-10)" cx="172.82" cy="562.55" rx="23.13" ry="20.606" fill="none" stroke="#000" stroke-linecap="round" stroke-width="10"/>
   <ellipse cx="273.48" cy="532.27" rx="8.1231" ry="7.2769"/>
  </g>
  <g transform="matrix(-1 0 0 1 693.79 -25.205)">
   <path d="m228.76 511.5c19.272-16.635 40.705-21.014 62.27-24.645" fill="none" stroke="#000" stroke-linecap="round" stroke-width="15"/>
   <ellipse transform="rotate(-10)" cx="172.82" cy="562.55" rx="23.13" ry="20.606" fill="none" stroke="#000" stroke-linecap="round" stroke-width="10"/>
   <ellipse cx="273.48" cy="532.59" rx="8.1231" ry="7.5923"/>
  </g>
  <g transform="translate(0 -25.205)" fill="none" stroke="#000" stroke-linecap="round">
   <path d="m372.19 571.94c2.2588 0.17166 4.5544 3.0062 4.9693 4.0613 6.1434 15.621-0.16816 30.743-32.725 28.528-28.319-2.1137-40.063-22.793-21.783-37.06 1.0603-0.82751 6.2046-3.1786 9.278-1.9279" stroke-width="7"/>
   <path d="m426.12 610.56c0.83956 0.22146-3.6084 4.4139-6.9796-0.0832-1.6291-3.6065 1.2918-7.414 4.6939-8.4859 5.9024-1.8596 11.284 2.5313 11.785 8.331 0.48841 5.6503-2.1462 9.4834-4.9397 12.458-14.66 15.612-64.808-1.9426-63.247-18.612" stroke-width="5"/>
   <path d="m269 602.33c-0.85813 0.13237 3.1272 4.7669 6.95 0.64682 1.9971-3.4165-0.50976-7.5085-3.7812-8.93-5.6757-2.4664-11.486 1.338-12.591 7.0535-1.0764 5.5683 1.1432 9.6558 3.6104 12.906 12.948 17.059 64.656 4.8423 64.846-11.899" stroke-width="5"/>
  </g>
  <g transform="translate(0 -25.205)" fill="none" stroke="#000" stroke-linecap="round" stroke-width="10">
   <path d="m343.58 119.43v-60.829"/>
   <path d="m315.67 82.857h54.703"/>
  </g>
  <path transform="translate(0 -25.205)" d="m335.22 119.71c-62.684 0.0649-115.53 43.277-123.33 100.85-131.55-20.534-227.2 185.86-63.02 240.06v143.78a34.82 34.82 45 0 0 34.82 34.82h337.44a34.82 34.82 135 0 0 34.82-34.82v-144.04c137.3-63.867 45.927-259.08-97.406-210.96 8.5628-58.592-38.742-129.7-123.32-129.7z" fill="none" stroke="#000" stroke-width="10.377"/>
 </g>
</svg>
