<?xml version="1.0" encoding="UTF-8"?>
<!-- Created with Inkscape (http://www.inkscape.org/) -->
<svg id="svg1" width="688" height="688" version="1.1" viewBox="0 0 688 688" xml:space="preserve" xmlns="http://www.w3.org/2000/svg"><g id="g1"><path id="path1" d="m461.51 84.451c-29.786 12.07-59.78 23.972-72.559 49.957-39.753 8.4535-88.284-9.6064-125.22 10.004-20.831-24.31-40.854-49.429-84.371-51.053 9.4076 29.205-1.9321 63.31 50.355 79.262-21.492 26.015-34.46 63.988-15.914 107.46l-0.16797 289.33-69.177 5.6773-2.1027 58.876 392.44 2.313 0.63081-64.343-70.231-2.5232v-279.34c29.717-56.047 6.0929-104.04-24.176-130.9 10.853-18.202 26.869-27.804 20.496-74.715z" fill="#fff"/><path id="path25" d="m451.55 176.62c12.119 52.14 9.4774 97.029-31.151 165.21 30.193 82.49 27.152 143.64-61.102 230.47l105.98-2.0183 0.70711-275.06c14.444-40.906 17.504-80.999-14.433-118.59z" fill="#d3d3d6"/><path id="rect22" d="m143.25 620.82h391.57v16.515h-391.57z" fill="#d3d3d6" stroke-linejoin="round" stroke-width="8.6957"/><path id="path19" d="m209.67 569.39h257.37" stroke="#000" stroke-linejoin="round" stroke-width="10"/><path id="path14" d="m439.96 96.002c5.5013-7.5742 28.556 53.918 3.0808 65.064z" fill="#d3d3d6"/><path id="path15" d="m227.03 106.51c-22.4 5.4788-33.306 70.04 0.0858 65.132 63.787-33.966 12.805-68.285-0.0858-65.132z" fill="#d3d3d6"/><g id="g17"><path id="path16" d="m412.74 359.81c-25.416 45.336-58.826 84.927-123.11 71.962 26.008 14.245 61.68 11.094 95.157 11.895 20.49-27.251 21.537-55.198 27.952-83.857z" fill="#d3d3d6"/><ellipse id="path8" transform="rotate(-22.5)" cx="139.11" cy="498.08" rx="10.952" ry="15.124"/><ellipse id="ellipse8" transform="matrix(-.92388 -.38268 -.38268 .92388 0 0)" cx="-499.46" cy="233.58" rx="10.952" ry="15.124"/><path id="path5" transform="translate(2)" d="m212.43 281.67c7.6736 9.8189 64.666 80.837 67.982 112.34 0.24316 21.703 0.66413 32.925 11.108 42.49 15.103 9.8844 31.54 8.0678 48.768 8.3262m127.05-163.16c-7.6736 9.8189-64.666 80.837-67.982 112.34-0.24316 21.703-0.66413 32.925-11.108 42.49-15.103 9.8844-31.54 8.0678-48.768 8.3262" fill="none" stroke="#000" stroke-width="10" style="paint-order:normal"/><path id="path18" d="m277 368.75c47.539-11.302 91.169-9.2463 131.14 0" fill="none" stroke="#000" stroke-width="10"/></g><g id="g11" transform="translate(-134.15)"><ellipse id="ellipse10" transform="matrix(-.92339 -.38385 -.38152 .92436 0 0)" cx="-469.7" cy="86.148" rx="19.778" ry="16.835" fill="none" stroke="#000" stroke-width="6.2194"/><circle id="circle10" transform="scale(-1,1)" cx="-401.16" cy="261.21" r="8.4211"/></g><g id="g18" transform="matrix(-1 0 0 1 802.05 0)"><ellipse id="ellipse17" transform="matrix(-.92339 -.38385 -.38152 .92436 0 0)" cx="-469.7" cy="86.148" rx="19.778" ry="16.835" fill="none" stroke="#000" stroke-width="6.2194"/><circle id="circle17" transform="scale(-1,1)" cx="-400.27" cy="261.21" r="8.4211"/></g><path id="path24" d="m461.51 84.451c-29.786 12.07-59.78 23.972-72.559 49.957l2.5977 1.4844c-32.57-3.6416-97.39-2.834-114.35 2.5469-4.2867 1.3601-8.849 3.485-13.471 5.9727-20.831-24.31-40.854-49.429-84.371-51.053 9.4076 29.205-1.9321 63.31 50.355 79.262-21.492 26.015-34.46 63.988-15.914 107.46l-0.16797 289.33h-56.412a17.602 17.602 135 0 0-17.602 17.602v33.765a17.602 17.602 45 0 0 17.602 17.602h364.38a17.602 17.602 135 0 0 17.602-17.602v-33.765a17.602 17.602 45 0 0-17.602-17.602h-56.414v-279.34c29.717-56.047 6.0929-104.04-24.176-130.9 10.853-18.202 26.869-27.804 20.496-74.715z" fill="none" stroke="#000" stroke-width="10"/><g id="g22" transform="translate(0,2)"><path id="path13" transform="matrix(1.0176 -.089026 .089026 1.0176 -22.053 24.213)" d="m316.07 133.45h-36.32c-1.3339 0-2.3634-1.0275-2.3256-2.2955 1.4837-49.734-45.293-37.944-47.83-15.024-0.13956 1.2611-0.14014 3.3193-0.1415 4.5878l-0.0403 38.001a7.4858 7.4858 45.03 0 0 7.4858 7.4937h198.91a7.4858 7.4858 134.97 0 0 7.4858-7.4937l-0.0403-38.001c-2e-3 -1.2685-2e-3 -3.3267-0.1415-4.5878-2.5366-22.92-49.314-34.711-47.83 15.024 0.0379 1.268-0.99169 2.2955-2.3256 2.2955h-34.441c-5.7067 0 5.9586-25.529-11.433-35.658-5.0925-2.5125-15.681-2.6654-20.407 1.5817-11.534 13.169-7.9912 34.076-10.609 34.076z" fill="#fff"/><path id="path20" d="m425.81 85.405c1.0151 26.602-14.421 50.981-27.675 71.241l43.659-4.4007c-5.5248-27.463 3.8091-60.771-15.984-66.84z" fill="#d3d3d6"/><path id="path21" transform="matrix(1.0176 -.089026 .089026 1.0176 -22.053 24.213)" d="m316.07 133.45h-36.32c-1.3339 0-2.3634-1.0275-2.3256-2.2955 1.4837-49.734-45.293-37.944-47.83-15.024-0.13956 1.2611-0.14014 3.3193-0.1415 4.5878l-0.0403 38.001a7.4858 7.4858 45.03 0 0 7.4858 7.4937h198.91a7.4858 7.4858 134.97 0 0 7.4858-7.4937l-0.0403-38.001c-2e-3 -1.2685-2e-3 -3.3267-0.1415-4.5878-2.5366-22.92-49.314-34.711-47.83 15.024 0.0379 1.268-0.99169 2.2955-2.3256 2.2955h-34.441c-5.7067 0 5.9586-25.529-11.433-35.658-5.0925-2.5125-15.681-2.6654-20.407 1.5817-11.534 13.169-7.9912 34.076-10.609 34.076z" fill="none" stroke="#000" stroke-width="7.851"/></g></g><style id="style1">
		.s0 { fill: #020202 } 
	</style></svg>
