<?xml version="1.0" encoding="UTF-8"?>
<!-- Created with Inkscape (http://www.inkscape.org/) -->
<svg id="svg1" width="688" height="688" version="1.1" viewBox="0 0 688 688" xmlns="http://www.w3.org/2000/svg">
 <g id="g1">
  <path id="path1" d="m361.3 139.76c-15.516-4.7e-4 -19.358 9.8101-19.252 21.334-68.286 5.3913-131.85 79.653-70.012 222.86-33.838 65.171-72.908 127.16-69.346 215.09 0.55216 13.63 13.122 24.613 26.768 24.613h241.23c13.645 0 26.215-10.983 26.768-24.613 3.562-87.936-35.51-149.92-69.348-215.09 55.815-129.24 13.47-202.32-46.293-219.31 0.64468-20.023-3.964-24.639-20.516-24.875z" fill="#575452"/>
  <path id="path7" d="m446.64 243.84c-17.831 150.26-115.45 118.82-174.85 141.55 22.95 74.237 161.43 64.529 219.46 144.52l-63.041-148.68c36.653-62.178 22.317-96.973 18.437-137.38z" fill="#464342"/>
  <path id="path8" d="m272.09 385.39c52.417 5.2959 104.49 5.801 156.12 0" fill="none" stroke="#000" stroke-width="10"/>
  <path id="path5" d="m340.71 161.1c13.64 0.11388 28.533 0.30737 41.78 3.5684" fill="none" stroke="#000" stroke-width="10"/>
  <ellipse id="path2" transform="rotate(22)" cx="444.05" cy="104.43" rx="10.705" ry="13.679"/>
  <ellipse id="ellipse2" transform="rotate(22)" cx="410.67" cy="117.91" rx="10.705" ry="13.679"/>
  <path id="path3" d="m363.77 299.54c4.4731 39.769-34.394 44.561-40.469 36.782-20.97-17.981 0.71432-44.427 30.279-55.932" fill="none" stroke="#000" stroke-linecap="round" stroke-width="10"/>
  <path id="path4" d="m351.97 350.64c13.621-3.1836 23.103-6.4563 31.285-21.162" fill="none" stroke="#000" stroke-linecap="round" stroke-width="10"/>
  <path id="path6" d="m361.3 139.76c-15.516-4.7e-4 -19.358 9.8101-19.252 21.334-68.286 5.3913-131.85 79.653-70.012 222.86-33.838 65.171-72.908 127.16-69.346 215.09 0.55216 13.63 13.122 24.613 26.768 24.613h241.23c13.645 0 26.215-10.983 26.768-24.613 3.562-87.936-35.51-149.92-69.348-215.09 55.815-129.24 13.47-202.32-46.293-219.31 0.64468-20.023-3.964-24.639-20.516-24.875z" fill="none" stroke="#000" stroke-width="10"/>
 </g>
</svg>
