<?xml version="1.0" encoding="UTF-8"?>
<!-- Created with Inkscape (http://www.inkscape.org/) -->
<svg width="688" height="688" version="1.1" viewBox="0 0 688 688" xmlns="http://www.w3.org/2000/svg">
 <g>
  <path d="m640.42 236.63c0-9.3899 7.612-17.002 17.002-17.002s17.002 7.612 17.002 17.002c0 9.3899-7.612 17.002-17.002 17.002s-17.002-7.612-17.002-17.002zm-173.16-88.645c0-11.562 9.373-20.935 20.935-20.935s20.935 9.373 20.935 20.935c0 11.562-9.373 20.935-20.935 20.935s-20.935-9.373-20.935-20.935zm-452.1 104.77c0-11.818 9.5807-21.399 21.399-21.399 11.818 0 21.399 9.5807 21.399 21.399 0 11.818-9.5807 21.399-21.399 21.399-11.818 0-21.399-9.5807-21.399-21.399zm134.11-111.25c0-12.142 9.8432-21.985 21.985-21.985 12.142 0 21.985 9.8432 21.985 21.985 0 12.142-9.8432 21.985-21.985 21.985-12.142 0-21.985-9.8432-21.985-21.985zm365.02 472.75-343.4-0.116c-8.7536 0.29082-22.061-9.5713-25.243-17.509-12.324-33.163-6.9126-111.56-6.4218-162.87-18.204-64.277-39.28-119.26-92.99-161.92 3.5773-2.4864 6.784-5.0552 8.6163-7.9294 120.7 40.246 129.63 54.815 145.93 70.853 10.285-42.346 10.756-98.778-24.624-171.78 2.8651-1.4709 5.015-1.2828 9.3093-4.8975 59.696 45.868 105.39 99.374 140.78 158.5 37.532-63.112 87.608-113.68 143.05-158.88 1.2727 2.8178 4.8016 6.0116 9.3804 9.3804-21.208 61.766-32.88 120.29-15.243 168.85 49.928-44.154 102.06-86.883 176.92-96.356 1.6815 3.6893 2.2919 7.586 7.207 11.275-49.999 47.81-82.093 111.86-109.08 178.3 2.1343 58.575 10.847 125.81 0.33109 167.74-1.8991 7.5727-16.703 17.187-24.517 17.367z" fill="#fff"/>
  <path d="m442.65 609.28c123.34-109.96 24.292-181.82 38.684-173.31 42.263-41.615 81.384-92.763 119.39-140.12-31.352 42.172-51.628 88.3-67.573 135.98-0.98298 53.727 9.9713 124.13-1.2825 164.12-1.0822 4.1745-12.812 13.25-18.786 13.283-21.549 0.11758-50.794-0.30323-70.435 0.0535z" fill="#d3d3d6"/>
  <path d="m353.66 593.94c24.69-17.246 28.64-24.053 29.507-27.101 2.3623-8.8073-9.1841-27.312-29.663-12.485-20.598-14.666-31.999 3.9346-29.567 12.723 1.9487 6.6531 16.364 17.707 29.723 26.863z" stroke="#000" stroke-width="9.9"/>
 </g>
 <g transform="matrix(-.99 0 0 -.99 682.18 690.92)">
  <path d="m455.43 260.68c0.29057 37.943 15.988 80.251 28.331 107.24" fill="none" stroke="#d3d3d6" stroke-width="7"/>
  <path d="m463.13 260.46c0.29057 37.943 13.619 72.256 25.962 99.243" stroke="#000" stroke-width="10"/>
  <path d="m332.74 259.4c0.67925 44.501 9.5185 84.69 21.615 124.95" fill="none" stroke="#d3d3d6" stroke-width="7"/>
  <path d="m341.4 257.9c0.69938 45.819 8.4839 82.621 20.135 121.4" stroke="#000" stroke-width="10"/>
 </g>
 <g>
  <g transform="matrix(-.99 0 0 -.99 709.96 689.26)">
   <path transform="rotate(180 356.83 326.47)" d="m398.33 394.6c12.363-37.884 42.212-82.247 62.274-112.43" fill="none" stroke="#d3d3d6" stroke-width="7"/>
   <path transform="translate(28.056 -1.675)" d="m278.49 258.59c-12.363 37.884-34.513 69.885-54.575 100.07" stroke="#000" stroke-width="10"/>
  </g>
  <path transform="matrix(-.99 0 0 -.99 682.18 690.92)" d="m143.64 154.63c7.5266 5.808 20.761 7.6684 26.278 7.5908l176.94 1.0791 176.94-1.0791c5.5171 0.0776 18.752-1.7828 26.278-7.5908" fill="none" stroke="#000" stroke-width="10"/>
  <path transform="matrix(-.99 0 0 .99 682.18 179.53)" d="m149.23 256.42c3.0787 0.0539 19.149 1.3612 22.248 1.4097 64.118 1.0031 120.43 5.1571 178.8 4.1421m198.61-5.5518c-3.0787 0.0539-19.149 1.3612-22.248 1.4097-64.118 1.0031-120.43 5.1571-178.8 4.1421" stroke="#000" stroke-width="10"/>
 </g>
 <g transform="matrix(-.99 0 0 -.99 682.18 690.92)">
  <g fill="none" stroke="#000">
   <ellipse transform="rotate(-30)" cx="260.25" cy="371.23" rx="27.495" ry="24.788" stroke-width="10"/>
   <path d="m435.39 189.9c-23.183 17.612-43.123 4.9714-48.156 2.0937" stroke-width="8"/>
   <g stroke-linecap="round" stroke-width="8">
    <path d="m461.77 208.64c-4.3092-8.6808-9.8305-15.544-19.681-15.912"/>
    <path d="m436.44 204.45c1.2058 5.1003 3.1583 11.321 1.0469 15.912"/>
    <path d="m420.74 216.07c4.0464 7.9903 1.6906 12.047-0.83749 16.75"/>
   </g>
  </g>
  <circle cx="411.42" cy="186.66" r="10.155"/>
  <ellipse transform="matrix(-.86603 -.5 -.5 .86603 0 0)" cx="-303.7" cy="46.314" rx="27.495" ry="24.788" fill="none" stroke="#000" stroke-width="10"/>
  <path d="m263.39 191.9c-23.183 17.612-43.123 4.9714-48.156 2.0937" fill="none" stroke="#000" stroke-width="8"/>
  <g>
   <g stroke="#000" stroke-linecap="round" stroke-width="8">
    <path d="m211.12 192.76c-6.7116 4.0902-13.423 8.2166-20.135 19.246"/>
    <path d="m213.35 203.93c-4.9776 4.2975-8.7576 9.1082-9.8405 15.075"/>
    <path d="m223.61 212.93c-1.4441 3.5261-4.6065 6.3648-4.3968 10.887"/>
   </g>
   <circle cx="240.3" cy="188.43" r="10.155"/>
  </g>
 </g>
 <path d="m638.44 236.63c0-9.3899 7.612-17.002 17.002-17.002s17.002 7.612 17.002 17.002c0 9.3899-7.612 17.002-17.002 17.002s-17.002-7.612-17.002-17.002zm-173.16-88.645c0-11.562 9.373-20.935 20.935-20.935s20.935 9.373 20.935 20.935c0 11.562-9.373 20.935-20.935 20.935s-20.935-9.373-20.935-20.935zm-452.1 104.77c0-11.818 9.5807-21.399 21.399-21.399 11.818 0 21.399 9.5807 21.399 21.399 0 11.818-9.5807 21.399-21.399 21.399-11.818 0-21.399-9.5807-21.399-21.399zm134.11-111.25c0-12.142 9.8432-21.985 21.985-21.985 12.142 0 21.985 9.8432 21.985 21.985 0 12.142-9.8432 21.985-21.985 21.985-12.142 0-21.985-9.8432-21.985-21.985zm365.02 472.75-343.4-0.116c-8.7536 0.29082-22.061-9.5713-25.243-17.509-12.324-33.163-6.9126-111.56-6.4218-162.87-18.204-64.277-39.28-119.26-92.99-161.92 3.5773-2.4864 6.784-5.0552 8.6163-7.9294 120.7 40.246 129.63 54.815 145.93 70.853 10.285-42.346 10.756-98.778-24.624-171.78 2.8651-1.4709 5.015-1.2828 9.3093-4.8975 59.696 45.868 105.39 99.374 140.78 158.5 37.532-63.112 87.608-113.68 143.05-158.88 1.2727 2.8178 4.8016 6.0116 9.3804 9.3804-21.208 61.766-32.88 120.29-15.243 168.85 49.928-44.154 102.06-86.883 176.92-96.356 1.6815 3.6893 2.2919 7.586 7.207 11.275-49.999 47.81-82.093 111.86-109.08 178.3 2.1343 58.575 10.847 125.81 0.33109 167.74-1.8991 7.5727-16.703 17.187-24.517 17.367z" fill="none" stroke="#000" stroke-width="9.9"/>
</svg>
