<?xml version="1.0" encoding="UTF-8"?>
<!-- Created with Inkscape (http://www.inkscape.org/) -->
<svg id="svg1" width="688" height="688" version="1.1" viewBox="0 0 688 688" xml:space="preserve" xmlns="http://www.w3.org/2000/svg"><g id="g1"><path id="path1" transform="translate(4.3766 -16.388)" d="m213.8 256.08-0.16797 313.33-69.177 5.6773-2.1027 58.876 392.44 2.313 0.63081-64.343-70.231-2.5232v-313.34z" fill="#fff"/><path id="rect22" transform="translate(-1.9184 49.405)" d="m147.78 555.11h394.07v16.515h-394.07z" fill="#d3d3d6" stroke-linejoin="round" stroke-width="8.7234"/><path id="path22" d="m322.34 240.27c165.98 42.512 94.372 195.93 112.15 311.1l36.534 4.1121-2.3789-318.78z" fill="#d3d3d6"/><path id="path19" d="m214.87 553h257.37" stroke="#000" stroke-linejoin="round" stroke-width="10"/><g id="g22" transform="matrix(1.7398 .15221 -.15221 1.7398 -217.09 -99.169)"><path id="path13" transform="matrix(1.0176 -.089026 .089026 1.0176 -22.053 24.213)" d="m316.07 133.45h-36.32c-1.3339 0-2.3634-1.0275-2.3256-2.2955 1.4837-49.734-45.293-37.944-47.83-15.024-0.13956 1.2611-0.14014 3.3193-0.1415 4.5878l-0.0403 38.001a7.4858 7.4858 45.03 0 0 7.4858 7.4937h198.91a7.4858 7.4858 134.97 0 0 7.4858-7.4937l-0.0403-38.001c-2e-3 -1.2685-2e-3 -3.3267-0.1415-4.5878-2.5366-22.92-49.314-34.711-47.83 15.024 0.0379 1.268-0.99169 2.2955-2.3256 2.2955h-34.441c-5.7067 0 5.9586-25.529-11.433-35.658-5.0925-2.5125-15.681-2.6654-20.407 1.5817-11.534 13.169-7.9912 34.076-10.609 34.076z" fill="#fff"/><path id="path20" d="m425.81 85.405c1.0151 26.602-14.421 50.981-27.675 71.241l43.659-4.4007c-5.5248-27.463 3.8091-60.771-15.984-66.84z" fill="#d3d3d6"/><path id="path21" transform="matrix(1.0176 -.089026 .089026 1.0176 -22.053 24.213)" d="m316.07 133.45h-36.32c-1.3339 0-2.3634-1.0275-2.3256-2.2955 1.4837-49.734-45.293-37.944-47.83-15.024-0.13956 1.2611-0.14014 3.3193-0.1415 4.5878l-0.0403 38.001a7.4858 7.4858 45.03 0 0 7.4858 7.4937h198.91a7.4858 7.4858 134.97 0 0 7.4858-7.4937l-0.0403-38.001c-2e-3 -1.2685-2e-3 -3.3267-0.1415-4.5878-2.5366-22.92-49.314-34.711-47.83 15.024 0.0379 1.268-0.99169 2.2955-2.3256 2.2955h-34.441c-5.7067 0 5.9586-25.529-11.433-35.658-5.0925-2.5125-15.681-2.6654-20.407 1.5817-11.534 13.169-7.9912 34.076-10.609 34.076z" fill="none" stroke="#000" stroke-width="5.6058"/></g><g id="g2"><circle id="circle4" cx="352.28" cy="337.96" r="9.6644"/><path id="path2" d="m352.45 301.32 36.124 29.642" fill="none" stroke="#000" stroke-linecap="round" stroke-width="15"/></g><g id="g3"><path id="path3" d="m320.58 301.32-36.124 29.642" fill="none" stroke="#000" stroke-linecap="round" stroke-width="15"/><circle id="path4" cx="324.28" cy="337.96" r="9.6644"/></g><path id="path5" d="m369.03 383.01c22.423 121.28-162.46 31.506-30.926-21.41" fill="none" stroke="#000" stroke-linecap="round" stroke-linejoin="round" stroke-width="10"/><path id="Path 18" class="s0" d="m317.61 445.25c-1.94 1.3703-3.7693 3.6946-5.7699 5.6875-3.837 3.8224-6.7946 8.1494-9.3656 11.751-2.1563 3.0204-4.4693 5.0672-4.4693 5.7973 0 1.939 10.451 4.2552 11.805 0.4643 0.7-2.5 0.9-2.6 6-2 1.6264 0.20263 5.2257-0.64078 6-1.4 3.4674-3.1622 4.7153 1.2677 8.7-1 0.9874-3.7028 1.5536 0.38371 5.8692-1.4384 2.9543-1.1123 0.71082 1.7464 5.8308-1.2616 1.3-0.6 3.5-1 5-1 3.6877 2.3966 4.7693 3.5912 7.4692 3.7538 2.2763-1.0329 5.0045 0.86745 7.2973 0.90269 1.2958 2.9156 16.582 7.1591 10.734-0.15648-0.8841-1.2982-2.5278-2.0156-3.548-3.2159-2.2293-2.6227-4.0076-5.587-6.206-8.0917-1.6191-1.8447-2.5046-3.8725-4.0486-5.7261-1.4824-1.7796-3.6182-3.3869-5.3974-5.0663-24.671 3.9977-30.094-1.4306-35.9 2z"/><path id="path24" transform="translate(4.3766 -16.388)" d="m213.8 254.08-0.16797 315.33h-56.412a17.602 17.602 135 0 0-17.602 17.602v33.765a17.602 17.602 45 0 0 17.602 17.602h364.38a17.602 17.602 135 0 0 17.602-17.602v-33.765a17.602 17.602 45 0 0-17.602-17.602h-56.414v-315.34z" fill="none" stroke="#000" stroke-width="10"/></g><style id="style1">
		.s0 { fill: #020202 } 
	</style></svg>
