<?xml version="1.0" encoding="UTF-8"?>
<!-- Created with Inkscape (http://www.inkscape.org/) -->
<svg id="svg1" width="688" height="688" version="1.1" viewBox="0 0 688 688" xml:space="preserve" xmlns="http://www.w3.org/2000/svg"><g id="g1"><path id="path1" d="m345.75 317.52c-10.256-3.1e-4 -12.795 6.484-12.725 14.101-45.134 3.5634-87.15 40.647-46.275 135.3-22.365 43.075-48.189 84.045-45.834 142.17 0.36495 9.0088 8.6732 16.268 17.692 16.268h159.44c9.019 0 17.327-7.2594 17.692-16.268 2.3543-58.122-23.47-99.092-45.836-142.17 36.891-85.425 8.9034-121.73-30.598-132.96 0.42611-13.235-2.62-16.285-13.56-16.441z" fill="#575452"/><path id="path7" d="m402.16 374.31c-11.786 99.316-76.31 78.533-115.57 93.555 15.169 49.067 106.7 42.651 145.05 95.521l-41.668-98.272c24.226-41.097 14.75-64.094 12.186-90.804z" fill="#464342"/><path id="path8" d="m286.79 467.87c34.645 3.5004 69.065 3.8342 103.19 0" fill="none" stroke="#000" stroke-width="10"/><path id="path5" d="m332.14 331.62c9.0153 0.0753 18.859 0.20316 27.615 2.3585" fill="none" stroke="#000" stroke-width="10"/><ellipse id="path2" transform="rotate(22)" cx="476.64" cy="209.98" rx="8.5615" ry="10.94"/><ellipse id="ellipse2" transform="rotate(22)" cx="429.66" cy="230.24" rx="8.5615" ry="10.94"/><path id="path3" d="m347.15 390.32c1.2026 10.692-9.777 11.626-13.001 10.949-8.2894-3.243-6.0362-12.9 1.912-17.183" fill="none" stroke="#000" stroke-linecap="round" stroke-width="7"/><path id="path6" d="m345.75 317.52c-10.256-3.1e-4 -12.795 6.484-12.725 14.101-45.134 3.5634-87.15 40.647-46.275 135.3-22.365 43.075-48.189 84.045-45.834 142.17 0.36495 9.0088 8.6732 16.268 17.692 16.268h159.44c9.019 0 17.327-7.2594 17.692-16.268 2.3543-58.122-23.47-99.092-45.836-142.17 36.891-85.425 8.9034-121.73-30.598-132.96 0.42611-13.235-2.62-16.285-13.56-16.441z" fill="none" stroke="#000" stroke-width="10"/><g id="g9" transform="translate(-8,12)" stroke="#000" stroke-linecap="round"><path id="path4" d="m316.08 406.76c19.243 4.2142 39.219 2.5635 59.397-0.70711" fill="#d3d3d6" stroke-width="10"/><path id="path9" d="m354.61 411.18 0.55347 10.793a3.1165 3.1165 43.155 0 0 3.1534 2.9566l7.4356-0.0978a2.53 2.53 129.39 0 0 2.4546-2.9895l-2.4601-13.313" fill="none" stroke-width="7"/><path id="path10" transform="rotate(15 350.18 333.56)" d="m354.61 411.18 0.55347 10.793a3.1165 3.1165 43.155 0 0 3.1534 2.9566l7.4356-0.0978a2.53 2.53 129.39 0 0 2.4546-2.9895l-2.4601-13.313" fill="none" stroke-width="7"/></g></g></svg>
