<?xml version="1.0" encoding="UTF-8"?>
<!-- Created with Inkscape (http://www.inkscape.org/) -->
<svg id="svg1" width="688" height="688" version="1.1" viewBox="0 0 688 688" xml:space="preserve" xmlns="http://www.w3.org/2000/svg"><g id="g1"><path id="path1" d="m354.51 158.07-221.68 221.44-52.93-44.901-43.118 40.145 275.86 279.13 45.943-45.051-47.876-51.445 221.56-221.56z" fill="#fff"/><path id="rect22" d="m45.408 364.91 278.65 278.65-11.678 11.678-278.65-278.65z" fill="#d3d3d6" stroke-linejoin="round" stroke-width="8.7234"/><path id="path22" d="m427.76 232.14c87.304 147.43-71.816 205.28-140.68 299.28l22.926 28.741 223.73-227.09z" fill="#d3d3d6"/><path id="path19" d="m130.63 377.28 181.99 181.99" stroke="#000" stroke-linejoin="round" stroke-width="10"/><g id="g22" transform="matrix(1.1226 1.3378 -1.3378 1.1226 286.34 -389.32)"><path id="path13" transform="matrix(1.0176 -.089026 .089026 1.0176 -22.053 24.213)" d="m316.07 133.45h-36.32c-1.3339 0-2.3634-1.0275-2.3256-2.2955 1.4837-49.734-45.293-37.944-47.83-15.024-0.13956 1.2611-0.14014 3.3193-0.1415 4.5878l-0.0403 38.001a7.4858 7.4858 45.03 0 0 7.4858 7.4937h198.91a7.4858 7.4858 134.97 0 0 7.4858-7.4937l-0.0403-38.001c-2e-3 -1.2685-2e-3 -3.3267-0.1415-4.5878-2.5366-22.92-49.314-34.711-47.83 15.024 0.0379 1.268-0.99169 2.2955-2.3256 2.2955h-34.441c-5.7067 0 5.9586-25.529-11.433-35.658-5.0925-2.5125-15.681-2.6654-20.407 1.5817-11.534 13.169-7.9912 34.076-10.609 34.076z" fill="#fff"/><path id="path20" d="m425.81 85.405c1.0151 26.602-14.421 50.981-27.675 71.241l43.659-4.4007c-5.5248-27.463 3.8091-60.771-15.984-66.84z" fill="#d3d3d6"/><path id="path21" transform="matrix(1.0176 -.089026 .089026 1.0176 -22.053 24.213)" d="m316.07 133.45h-36.32c-1.3339 0-2.3634-1.0275-2.3256-2.2955 1.4837-49.734-45.293-37.944-47.83-15.024-0.13956 1.2611-0.14014 3.3193-0.1415 4.5878l-0.0403 38.001a7.4858 7.4858 45.03 0 0 7.4858 7.4937h198.91a7.4858 7.4858 134.97 0 0 7.4858-7.4937l-0.0403-38.001c-2e-3 -1.2685-2e-3 -3.3267-0.1415-4.5878-2.5366-22.92-49.314-34.711-47.83 15.024 0.0379 1.268-0.99169 2.2955-2.3256 2.2955h-34.441c-5.7067 0 5.9586-25.529-11.433-35.658-5.0925-2.5125-15.681-2.6654-20.407 1.5817-11.534 13.169-7.9912 34.076-10.609 34.076z" fill="none" stroke="#000" stroke-width="5.6058"/></g><g id="g2" transform="rotate(45 384.87 363.45)"><circle id="circle4" cx="352.28" cy="337.96" r="9.6644"/><path id="path2" d="m352.45 301.32 36.124 29.642" fill="none" stroke="#000" stroke-linecap="round" stroke-width="15"/></g><g id="g3" transform="rotate(45 384.87 363.45)"><path id="path3" d="m320.58 301.32-36.124 29.642" fill="none" stroke="#000" stroke-linecap="round" stroke-width="15"/><circle id="path4" cx="324.28" cy="337.96" r="9.6644"/></g><path id="path5" d="m359.84 366.08c-69.899 101.61-137.16-92.601-6.7286-37.007" fill="none" stroke="#000" stroke-linecap="round" stroke-linejoin="round" stroke-width="10"/><path id="Path 18" class="s0" d="m279.47 373.73c-2.3407-0.40281-5.2778-0.0528-8.1016-0.0583-5.416-0.0104-10.567 0.95804-14.932 1.6866-3.6605 0.61104-6.7434 0.42275-7.2596 0.93901-1.3711 1.3711 4.3811 10.399 8.019 8.6756 2.2627-1.2728 2.4749-1.2021 5.6568 2.8284 1.0067 1.2933 4.1482 3.242 5.2326 3.2527 4.6879 0.21579 2.4378 4.2306 6.8589 5.4447 3.3164-1.92 0.8272 1.3698 5.1672 3.133 2.8755 1.3025-0.73226 1.7375 5.0151 3.2309 1.3435 0.49498 3.182 1.7678 4.2426 2.8284 0.91291 4.3023 0.83303 5.9117 2.6272 7.9358 2.34 0.87926 2.9254 4.1521 4.5217 5.7983-1.1453 2.9779 6.6633 16.788 7.7004 7.4791 0.29279-1.5431-0.36218-3.2126-0.23486-4.7828 0.2782-3.4309 1.1168-6.7845 1.3334-10.11 0.15954-2.4493 0.96726-4.5093 1.1862-6.9118 0.21016-2.3066-0.16356-4.9534-0.23413-7.399-20.272-14.618-20.268-22.292-26.799-23.971z"/><path id="path24" transform="rotate(45 402.46 376.93)" d="m213.8 254.08-0.16797 315.33h-56.412a17.602 17.602 135 0 0-17.602 17.602v33.765a17.602 17.602 45 0 0 17.602 17.602h364.38a17.602 17.602 135 0 0 17.602-17.602v-33.765a17.602 17.602 45 0 0-17.602-17.602h-56.414v-315.34z" fill="none" stroke="#000" stroke-width="10"/></g><style id="style1">
		.s0 { fill: #020202 } 
	</style></svg>
