<?xml version="1.0" encoding="UTF-8" standalone="no"?>
<svg version="1.2" xmlns="http://www.w3.org/2000/svg" viewBox="0 0 1080 1080" width="1080" height="1080">
  <title>Logo No Background</title>
  <style>
		.s0 { fill: #000000 } 
		.s1 { fill: #7c7c7c } 
		.s2 { fill: #ffffff } 
	</style>
  <g
     id="Background">
    <path
       id="Path 0"
       class="s0"
       d="m 237.01117,3.5007737 c -1.79619,1.4283178 -4.36218,3.895412 -5.64518,5.5834247 -1.28298,1.6880116 -2.69429,4.8043416 -3.20748,7.0117416 -0.6415,2.337248 1.1547,30.514064 4.61878,71.415896 3.20748,37.136264 5.77348,68.689114 5.77348,70.117424 0,1.81786 -3.20749,5.06404 -10.52056,10.38777 -5.90177,4.1551 -17.19213,14.15333 -25.27499,22.074 -7.95456,7.79083 -16.93552,17.52936 -20.01471,21.42477 -2.9509,3.89541 -8.85266,12.46532 -13.08654,18.82782 -4.23389,6.36251 -10.39226,17.00997 -13.47145,23.37248 -3.20748,6.3625 -8.08286,17.39951 -10.77716,24.41125 l -5.00366,12.59517 H 6.3287723 v 55.83423 H 28.139677 v 20.77554 h 21.810906 v 22.07401 h 20.52791 v 22.074 c 41.953927,0 51.319777,0.51939 51.319777,1.29847 0,0.77908 -2.43768,6.75205 -5.51688,13.37426 -3.07917,6.49235 -10.77714,20.77553 -17.192122,31.42298 -6.41497,10.77732 -21.297706,34.40948 -33.101254,52.58808 -11.931848,18.1786 -26.301387,41.94061 -32.074861,52.58807 -5.773476,10.77731 -12.573346,24.15156 -15.011035,29.86483 -2.565989,5.71327 -6.414972,15.58163 -8.724362,22.074 -2.1810909,6.49235 -5.1319783,16.88011 -6.5432721,23.37248 -1.4112939,6.49235 -2.95088717,18.17858 -3.33578551,25.96942 -0.51319768,8.5699 -0.12829944,19.21736 0.76979661,26.61863 0.8980962,6.75206 3.3357856,17.52937 5.3885764,24.02172 2.0527918,6.49235 5.6451766,15.4518 7.9545656,20.1263 2.309391,4.67449 7.05647,12.85486 10.520554,18.17859 3.592386,5.32374 9.622458,13.11456 13.471442,17.39951 3.848983,4.15511 10.520556,10.12807 14.754436,13.11456 4.233882,3.11632 12.445046,7.92066 18.218521,10.90715 5.901775,2.85664 14.882736,6.75204 19.886414,8.5699 5.131978,1.68802 13.728046,3.76557 18.988326,4.54465 l 9.62244,1.42832 c 3.97729,9.47884 7.69798,15.19211 11.03376,18.69797 3.20749,3.63572 9.36586,8.31023 13.47145,10.51762 4.10557,2.33725 10.39225,5.06404 13.98462,6.36252 4.10559,1.29847 10.64887,2.07754 17.96193,2.07754 7.82626,0 14.24124,-0.77907 19.88643,-2.59693 4.61877,-1.42832 11.80353,-4.93419 16.03742,-7.66099 4.23389,-2.85663 11.67524,-9.47884 16.67892,-14.67272 4.87538,-5.32372 12.44505,-15.1921 16.80723,-21.94415 4.36219,-6.75205 10.52056,-17.00997 13.59975,-22.72324 3.07918,-5.71327 8.72435,-17.13981 12.44504,-25.32018 3.72069,-8.18037 9.87906,-21.03523 13.85635,-28.56635 3.84897,-7.53114 10.77715,-19.21737 15.13932,-25.96943 4.49049,-6.75205 10.26396,-14.93241 13.08655,-18.04874 2.6943,-3.11634 9.49416,-9.34899 15.13934,-13.76378 5.64517,-4.41481 16.03743,-11.5564 23.09389,-15.84136 7.05648,-4.28495 22.58071,-12.725 34.64085,-18.69798 12.06014,-5.97296 25.53159,-12.59516 30.15037,-14.80256 4.61878,-2.07756 20.39962,-9.73853 35.28235,-17.00997 14.75443,-7.27145 34.51255,-17.91889 43.62181,-23.63216 l 16.67893,-10.38778 c 1.53958,15.45181 1.66789,29.2156 1.28299,40.64214 -0.38489,11.42655 -1.28299,25.70972 -2.05279,31.81254 -0.64149,6.10281 -2.43768,17.13981 -3.84897,24.67095 -1.41131,7.53112 -4.4905,20.38598 -6.92818,28.56634 -2.3094,8.18038 -6.67157,20.51585 -9.62246,27.26789 -2.82259,6.75206 -8.72437,18.4383 -12.95825,25.96941 -4.23387,7.53115 -11.54695,18.82784 -16.29402,25.19035 -4.74708,6.49236 -13.21485,17.00997 -18.98832,23.37247 -5.64517,6.49236 -20.14301,21.16508 -32.07485,32.59162 -11.93187,11.42655 -29.76549,28.9559 -39.64454,38.95413 -10.00735,9.99822 -21.55431,22.59339 -25.78819,27.91711 -4.23388,5.32374 -11.16206,14.67273 -15.26764,20.77554 -3.97728,6.10281 -9.87905,15.97119 -12.82994,22.07401 -3.07918,6.1028 -7.56967,17.13981 -10.13565,24.67094 -2.566,7.53113 -5.77348,19.21737 -7.18478,25.96941 -1.28298,6.75205 -3.07918,19.6069 -3.84897,28.5663 -0.89811,9.3491 -1.1547,23.6322 -0.6415,33.7603 0.6415,13.8936 1.28299,18.4383 3.33579,21.8143 1.28298,2.2074 4.36218,5.3238 6.54326,6.752 4.23388,2.5969 6.67159,2.5969 381.17765,2.5969 374.24958,0 376.81548,0 381.94748,-2.5969 2.8225,-1.4282 6.415,-4.5446 7.9546,-6.8817 2.8226,-4.0255 2.9508,-5.3238 3.3357,-38.5647 0.2566,-18.9577 -0.2566,-52.84778 -1.0264,-75.31132 -0.7697,-22.46355 -1.9244,-49.99113 -2.6944,-61.02813 -0.6414,-11.03699 -2.0526,-30.90361 -3.2074,-44.14801 -1.0264,-13.2444 -3.3357,-37.13626 -5.1319,-53.2373 -1.6679,-16.10104 -3.7208,-33.24086 -4.3622,-38.30488 -0.7698,-5.06404 -2.1811,-15.58166 -3.2075,-23.37248 -1.1547,-7.79083 -4.2338,-27.78729 -7.0565,-44.14801 -2.8225,-16.36074 -7.4414,-41.29138 -10.264,-55.18502 -2.8225,-13.89363 -6.6715,-31.81253 -8.4677,-39.60335 -1.9245,-7.79083 -6.2866,-25.06049 -9.7507,-38.3049 -3.4641,-13.24441 -9.8791,-35.44825 -14.113,-49.34188 -4.2338,-13.89364 -11.16204,-34.66917 -15.13933,-46.09571 -4.10557,-11.42655 -10.90543,-29.2156 -15.13932,-39.60337 -4.23387,-10.38777 -10.64885,-25.57987 -14.36954,-33.76024 -3.59238,-8.18036 -11.29035,-24.2814 -17.19212,-35.70794 -5.90179,-11.42655 -14.62614,-27.52759 -19.37321,-35.70795 -4.87539,-8.18037 -12.70165,-21.03523 -17.70533,-28.56636 -4.87538,-7.53113 -13.59974,-19.99645 -19.50152,-27.91713 -5.77347,-7.92067 -16.93554,-21.55461 -24.6335,-30.51405 -7.69796,-8.95945 -19.7581,-21.55462 -26.81457,-28.17683 -6.92818,-6.62219 -16.80723,-15.19211 -21.68261,-19.21737 -5.00368,-4.02525 -15.90913,-12.07578 -24.3769,-17.78905 -8.46776,-5.71327 -22.9656,-14.15333 -32.07487,-18.69798 -9.23754,-4.4148 -21.55429,-9.86837 -27.58436,-11.94592 -6.03009,-2.07756 -16.93553,-5.32375 -24.3769,-7.1416 -7.44138,-1.81786 -18.34682,-3.89541 -24.37689,-4.67449 -6.03008,-0.77909 -34.25596,-1.94771 -62.86673,-2.72679 -28.61077,-0.64923 -57.09327,-1.29848 -63.50823,-1.29848 H 548.39392 C 508.6211,38.429639 495.66285,13.239306 493.86666,11.161752 492.07047,9.0841984 489.11958,6.4872568 487.0668,5.5783269 c -1.92451,-1.0387767 -5.90179,-1.8178591 -8.98097,-1.8178591 -2.95089,0 -7.18476,1.0387766 -9.49416,2.2074004 -2.18109,1.2984713 -7.05648,5.1938838 -10.90545,8.6997538 -3.7207,3.376025 -10.00736,9.219143 -13.85634,12.98471 -3.84899,3.635717 -14.24124,13.374249 -23.09391,21.554613 -8.85267,8.180368 -19.24492,18.048747 -23.09389,21.684464 -3.84899,3.765566 -7.69797,6.881895 -8.33946,6.881895 -0.7698,0 -6.79988,-3.116329 -13.47145,-6.881895 C 369.1596,67.125843 348.88829,55.569454 330.92636,45.441382 312.96444,35.183462 288.33095,21.159978 276.3991,14.407929 257.41077,3.5007737 253.6901,1.9426087 247.53173,1.4232203 242.14314,1.1635262 239.70546,1.5530674 237.01117,3.5007737 Z"
       style="stroke-width:1.2907" />
    <path
       id="Path 1"
       class="s1"
       d="m 147.45816,329.02741 v 11.037 h -21.8109 v 22.074 h -21.81092 v 22.07401 h 21.81092 v -22.07401 h 21.8109 v 22.07401 h 20.52791 v -22.07401 h 21.8109 v -22.074 h 21.81092 v -22.074 h -21.81092 v 22.074 h -21.8109 v -22.074 h -20.52791 z m 242.48595,0 v 11.037 h -21.8109 v 22.074 h -20.52792 v 22.07401 h 20.52792 v -22.07401 h 21.8109 v 22.07401 h 21.8109 v -22.07401 h 21.8109 v -22.074 h 21.81091 v -22.074 h -21.81091 v 22.074 h -21.8109 v -22.074 h -21.8109 z"
       style="stroke-width:1.2907" />
    <path
       id="Path 2"
       fill-rule="evenodd"
       class="s2"
       d="m 473.46704,54.011289 c 0.51321,0.519387 10.90546,21.165074 23.09391,45.836015 12.18844,24.670946 23.73539,46.615106 25.53159,48.692666 1.92449,2.20739 5.38857,4.93419 7.82626,6.10281 3.72068,1.81786 12.70164,2.33725 66.58741,3.50587 34.25595,0.77908 67.35722,1.68801 73.77219,2.2074 6.41497,0.38954 17.06381,1.81786 23.73539,3.11633 6.67158,1.29847 17.70532,4.1551 24.3769,6.3625 6.67156,2.33725 18.6034,7.27144 26.30139,11.03701 7.69796,3.63572 18.47511,9.60868 23.73538,12.9847 5.26028,3.50588 12.82995,8.69976 16.67893,11.5564 3.84898,2.98648 10.52056,8.3102 14.75444,11.81608 4.23389,3.50588 12.44504,11.16685 18.34683,16.88012 5.90176,5.84312 16.03743,16.62043 22.5807,24.15156 6.54326,7.53113 15.39593,18.30843 19.62981,24.0217 4.23388,5.71328 11.54696,15.9712 16.16573,22.72325 4.61878,6.75204 13.34314,20.77553 19.50151,31.1633 6.03008,10.38775 16.42234,29.60512 22.96561,42.84954 6.54326,13.24439 16.29401,34.53931 21.6826,47.39418 5.38858,12.85486 13.85634,34.79902 18.86002,48.69266 5.00367,13.89364 11.67526,34.14977 15.01103,44.79724 3.20748,10.77732 8.08286,27.65743 10.77716,37.65565 2.82258,9.99822 7.44137,27.78728 10.26395,39.60337 2.82259,11.81607 7.18472,31.03344 9.75072,42.84953 2.4377,11.81608 6.6716,34.53933 9.4942,50.64035 2.6943,16.10105 6.6716,41.16154 8.8527,55.83426 2.0528,14.67272 5.132,40.38243 6.9282,57.13271 1.7961,16.75027 4.1055,41.55107 5.132,55.18502 1.1545,13.63394 2.566,35.18856 3.3356,48.04342 0.7699,12.85485 1.9246,41.81075 2.566,64.2743 0.6416,22.46354 1.283,47.52397 1.283,70.11737 H 332.85086 l 0.89809,-18.4381 c 0.3849,-10.7774 1.9245,-23.50246 3.46409,-30.25451 1.41128,-6.49235 4.10558,-16.10103 6.03007,-21.42476 1.7962,-5.32374 5.38858,-13.7638 7.95456,-18.82783 2.4377,-5.06403 7.18478,-13.11456 10.52056,-18.17859 3.33578,-5.06403 10.39226,-14.28319 15.65254,-20.77554 5.26027,-6.49234 21.68259,-23.50232 36.43704,-37.78549 14.75443,-14.41303 29.12398,-28.17683 31.81825,-30.51407 2.8226,-2.46709 11.93186,-12.07578 20.39963,-21.29492 8.46775,-9.21914 19.5015,-22.46354 24.63348,-29.21558 5.13198,-6.75207 11.54695,-16.10105 14.36955,-20.77554 2.69428,-4.6745 7.95456,-14.02349 11.54694,-20.77554 3.59238,-6.75205 8.59606,-17.39951 11.16205,-23.63216 2.56599,-6.36252 6.54328,-18.04875 8.98096,-25.96941 2.43769,-8.05054 5.90177,-21.94417 7.56967,-30.90362 1.79619,-8.95944 3.97727,-22.33369 5.00368,-29.86483 1.02639,-8.56991 1.66789,-27.00819 1.66789,-49.34189 0,-19.6069 -0.5132,-39.47351 -2.0528,-52.58806 l 11.03376,-13.63394 c 6.15837,-7.53115 14.11293,-18.04876 17.83363,-23.37248 3.84898,-5.32374 9.23755,-14.15334 12.31674,-19.47706 2.95088,-5.32374 7.31308,-14.41304 9.62246,-20.1263 2.30939,-5.71329 5.51688,-15.06227 7.05647,-20.77554 1.41129,-5.71327 3.46409,-16.23088 4.49048,-23.37247 1.0264,-7.1416 2.18109,-19.99645 2.69428,-28.56636 0.76981,-14.28318 0.6415,-16.10104 -1.92448,-21.68447 -1.6679,-3.76556 -4.36218,-7.27143 -6.92817,-8.8296 -2.43769,-1.55816 -6.41497,-2.59694 -9.87906,-2.59694 -3.46408,0 -7.44137,1.03878 -10.00736,2.59694 -2.30939,1.55817 -5.13198,4.93418 -6.54327,8.18036 -1.66789,3.89543 -2.56599,10.12808 -3.20749,22.33371 -0.51319,9.21915 -1.92448,22.46354 -3.33578,29.21559 -1.41129,6.75205 -3.97728,16.75027 -5.77349,22.07401 -1.79617,5.32372 -5.77345,14.41301 -8.72435,20.1263 -3.07919,5.71326 -8.72437,14.80255 -12.57334,20.1263 -3.97729,5.32372 -10.52055,13.50408 -14.75444,18.04873 -4.10557,4.54466 -12.44504,12.20564 -18.47512,17.00996 -6.03007,4.80435 -15.26763,11.5564 -20.52791,15.19212 -5.26028,3.50588 -16.03743,10.12807 -23.7354,14.67272 -7.82626,4.54465 -23.86369,12.98471 -35.92384,18.82783 -12.06015,5.84312 -26.68629,12.85486 -32.71636,15.7115 -6.03007,2.72679 -21.29771,10.25792 -33.99936,16.88012 -12.70164,6.49235 -29.50886,15.7115 -37.20682,20.51583 -7.82627,4.93419 -18.98833,12.72501 -25.0184,17.65921 -6.03009,4.80434 -13.98464,12.46532 -17.83363,17.00995 -3.84898,4.54467 -11.54694,15.32197 -17.06383,23.89187 -5.51687,8.56992 -13.47143,22.3337 -17.57702,30.51408 -4.23387,8.18036 -10.52055,21.68445 -14.24124,29.86482 -3.72068,8.18037 -10.26394,20.77553 -14.49783,27.91712 -4.23387,7.1416 -10.90546,17.26966 -14.88274,22.46355 -3.97728,5.32373 -10.13564,11.55638 -13.59974,14.15333 -4.74708,3.37601 -8.21117,4.67449 -13.47143,5.19388 -4.74708,0.38955 -8.85266,0 -12.57336,-1.42832 -2.95089,-1.16862 -5.38857,-2.85663 -5.38857,-3.63572 0,-0.90893 2.05279,-4.54464 4.36218,-8.18036 2.4377,-3.50587 10.26396,-15.84134 17.32043,-27.26789 12.06014,-19.21736 12.95825,-21.29491 12.95825,-27.26789 0,-3.8954 -0.89811,-7.92066 -2.3094,-9.99822 -1.1547,-1.94771 -3.97728,-4.80433 -6.03007,-6.23266 -2.4377,-1.55816 -6.03008,-2.59694 -9.62246,-2.59694 -4.23388,0 -7.31307,1.03878 -11.54695,3.63572 -3.20749,2.07756 -7.18477,5.19388 -8.98096,7.01174 -1.7962,1.81786 -10.13566,10.90714 -18.60342,20.386 -14.49785,16.10104 -15.65253,17.00998 -20.27131,17.00998 -2.566,0 -8.08286,-0.90894 -12.18845,-2.07758 -3.97728,-1.16862 -12.573348,-4.80433 -18.860021,-8.05051 C 79.587754,755.44522 73.81428,751.29012 67.784205,745.1873 63.165426,740.51281 56.750455,732.33244 53.414668,727.00872 50.207183,721.68498 45.845,712.5957 43.79221,706.88241 c -2.05279,-5.71328 -4.490481,-15.06225 -5.388577,-20.77552 -0.898097,-6.10282 -1.154695,-14.41303 -0.641497,-20.12631 0.384898,-5.32372 1.667893,-14.02348 2.694289,-19.08751 1.026395,-5.19389 3.720684,-14.93242 6.158372,-21.42477 2.437689,-6.6222 5.645176,-14.93242 7.184769,-18.56814 1.667894,-3.50586 6.928169,-14.15333 11.931849,-23.37248 5.003678,-9.21913 15.267634,-26.4888 22.709002,-38.30489 7.569667,-11.81607 18.346823,-28.4365 23.992003,-37.00641 5.64517,-8.56991 13.85633,-21.68446 18.34682,-29.2156 4.49047,-7.53113 11.67524,-20.64569 16.03743,-29.21559 4.36217,-8.5699 9.62246,-20.51584 15.78082,-37.65565 l 32.33146,-0.64924 v -22.074 h 21.81091 v -22.07401 h 21.81091 v -49.34188 h 33.35785 v 49.34188 h 20.52791 v 22.07401 h 21.8109 v 22.074 H 438.6979 v -22.074 h 21.81091 v -22.07401 h 21.8109 v -20.77554 h 21.8109 V 317.99041 H 660.65593 V 290.72252 H 180.81602 l 3.20748,-7.4013 c 1.7962,-4.15509 5.13198,-11.03699 7.31308,-15.32193 2.18108,-4.28496 7.56966,-12.98472 11.80353,-19.34723 4.3622,-6.3625 11.93186,-16.36073 16.80724,-22.074 5.00368,-5.84311 13.47144,-14.02349 18.60342,-18.43828 5.26028,-4.4148 13.59974,-10.51761 18.60342,-13.7638 5.00367,-3.24617 28.09758,-15.58163 51.31977,-27.65742 23.2222,-11.94593 52.98767,-27.39774 66.07422,-34.14979 13.08655,-6.75206 25.40328,-13.50409 27.58438,-15.06226 2.05278,-1.42832 6.79987,-5.32373 10.39225,-8.5699 3.59238,-3.24619 18.47513,-17.13982 33.22955,-30.903612 14.75445,-13.893637 27.19949,-24.670945 27.71268,-24.021709 z m -201.17352,1.817858 c 1.5396,0.90893 6.54327,3.765567 11.16205,6.362508 4.61878,2.726789 15.90913,9.089295 25.01839,14.283178 9.10925,5.32373 22.06751,12.725014 28.61078,16.490579 6.41497,3.765567 11.80355,7.531138 11.80355,8.180358 0,0.77908 -10.77714,6.75205 -24.12029,13.50411 -13.21484,6.75204 -29.63718,15.19209 -36.43705,18.82783 -8.59606,4.54465 -12.70164,6.1028 -13.08654,5.06403 -0.3849,-0.90894 -2.05279,-19.60691 -3.84899,-41.551065 -1.79619,-22.074006 -2.95088,-40.642138 -2.56599,-41.291374 0.38491,-0.908929 1.66789,-0.779082 3.46409,0.129846 z"
       style="stroke-width:1.2907" />
    <path
       id="Path 3"
       class="s1"
       d="m 167.98607,351.10142 v 11.03699 h 21.8109 v -22.074 h -21.8109 z m 243.76894,0 v 11.03699 h 21.8109 v -22.074 h -21.8109 z"
       style="stroke-width:1.2907" />
    <path
       id="Path 4"
       class="s0"
       d="m 660.65593,332.27359 v 14.28316 h 26.94289 v -28.56634 h -26.94289 z m -513.19777,18.82783 v 11.03699 h 20.52791 v -22.074 h -20.52791 z m 242.48595,0 v 11.03699 h 21.8109 v -22.074 h -21.8109 z M 85.874427,630.27263 c -3.207486,0.90893 -8.339464,4.02526 -11.54695,6.8819 -3.207486,2.7268 -7.569667,8.44007 -9.750757,12.72502 -2.30939,4.1551 -4.747079,10.77731 -5.516876,14.41303 -0.769796,3.76556 -1.411295,12.725 -1.411295,19.8666 0,8.95945 0.641499,14.15333 1.924493,16.88012 1.154693,2.33726 2.950887,3.89541 4.49048,3.89541 1.411293,0 7.056469,-2.98649 12.573346,-6.75205 5.388576,-3.63572 14.241238,-9.99822 19.501515,-14.02348 5.260277,-4.15511 12.316747,-10.38777 15.780827,-14.15334 5.77348,-6.36251 6.03009,-6.88189 6.03009,-14.41302 0,-4.28496 -0.64151,-9.349 -1.41131,-11.42655 -0.7698,-1.9477 -2.56598,-4.93418 -4.10557,-6.49235 -1.53961,-1.68801 -4.87538,-4.15511 -7.31307,-5.45358 -2.43769,-1.29847 -6.543276,-2.72679 -8.980967,-3.11632 -2.437691,-0.38955 -7.05647,0.12983 -10.263956,1.16861 z"
       style="stroke-width:1.2907" />
  </g>
</svg>
