<?xml version="1.0" encoding="UTF-8"?>
<svg width="3135.1" height="1077.5" version="1.2" viewBox="0 0 3135.1 1077.5" xmlns="http://www.w3.org/2000/svg" xmlns:cc="http://creativecommons.org/ns#" xmlns:dc="http://purl.org/dc/elements/1.1/" xmlns:rdf="http://www.w3.org/1999/02/22-rdf-syntax-ns#">
 <title>Logo No Background</title>
 <style>.s0 { fill: #000000 } 
		.s1 { fill: #7c7c7c } 
		.s2 { fill: #ffffff }</style>
 <g id="Background" transform="translate(-.068837 -1.3514)" stroke-width="1.2907">
  <path class="s0" d="m237.01 3.5008c-1.7962 1.4283-4.3622 3.8954-5.6452 5.5834-1.283 1.688-2.6943 4.8043-3.2075 7.0117-0.6415 2.3372 1.1547 30.514 4.6188 71.416 3.2075 37.136 5.7735 68.689 5.7735 70.117 0 1.8179-3.2075 5.064-10.521 10.388-5.9018 4.1551-17.192 14.153-25.275 22.074-7.9546 7.7908-16.936 17.529-20.015 21.425-2.9509 3.8954-8.8527 12.465-13.087 18.828-4.2339 6.3625-10.392 17.01-13.471 23.372-3.2075 6.3625-8.0829 17.4-10.777 24.411l-5.0037 12.595h-134.07v55.834h21.811v20.776h21.811v22.074h20.528v22.074c41.954 0 51.32 0.51939 51.32 1.2985s-2.4377 6.752-5.5169 13.374c-3.0792 6.4924-10.777 20.776-17.192 31.423-6.415 10.777-21.298 34.409-33.101 52.588-11.932 18.179-26.301 41.941-32.075 52.588-5.7735 10.777-12.573 24.152-15.011 29.865-2.566 5.7133-6.415 15.582-8.7244 22.074-2.1811 6.4924-5.132 16.88-6.5433 23.372-1.4113 6.4924-2.9509 18.179-3.3358 25.969-0.5132 8.5699-0.1283 19.217 0.7698 26.619 0.8981 6.7521 3.3358 17.529 5.3886 24.022 2.0528 6.4924 5.6452 15.452 7.9546 20.126 2.3094 4.6745 7.0565 12.855 10.521 18.179 3.5924 5.3237 9.6225 13.115 13.471 17.4 3.849 4.1551 10.521 10.128 14.754 13.115 4.2339 3.1163 12.445 7.9207 18.219 10.907 5.9018 2.8566 14.883 6.752 19.886 8.5699 5.132 1.688 13.728 3.7656 18.988 4.5446l9.6224 1.4283c3.9773 9.4788 7.698 15.192 11.034 18.698 3.2075 3.6357 9.3659 8.3102 13.471 10.518 4.1056 2.3372 10.392 5.064 13.985 6.3625 4.1056 1.2985 10.649 2.0775 17.962 2.0775 7.8263 0 14.241-0.77907 19.886-2.5969 4.6188-1.4283 11.804-4.9342 16.037-7.661 4.2339-2.8566 11.675-9.4788 16.679-14.673 4.8754-5.3237 12.445-15.192 16.807-21.944 4.3622-6.752 10.521-17.01 13.6-22.723 3.0792-5.7133 8.7244-17.14 12.445-25.32s9.8791-21.035 13.856-28.566c3.849-7.5311 10.777-19.217 15.139-25.969 4.4905-6.752 10.264-14.932 13.087-18.049 2.6943-3.1163 9.4942-9.349 15.139-13.764 5.6452-4.4148 16.037-11.556 23.094-15.841 7.0565-4.285 22.581-12.725 34.641-18.698 12.06-5.973 25.532-12.595 30.15-14.803 4.6188-2.0776 20.4-9.7385 35.282-17.01 14.754-7.2714 34.513-17.919 43.622-23.632l16.679-10.388c1.5396 15.452 1.6679 29.216 1.283 40.642-0.38489 11.427-1.283 25.71-2.0528 31.813-0.64149 6.1028-2.4377 17.14-3.849 24.671-1.4113 7.5311-4.4905 20.386-6.9282 28.566-2.3094 8.1804-6.6716 20.516-9.6225 27.268-2.8226 6.7521-8.7244 18.438-12.958 25.969-4.2339 7.5312-11.547 18.828-16.294 25.19-4.7471 6.4924-13.215 17.01-18.988 23.372-5.6452 6.4924-20.143 21.165-32.075 32.592-11.932 11.427-29.765 28.956-39.645 38.954-10.007 9.9982-21.554 22.593-25.788 27.917-4.2339 5.3237-11.162 14.673-15.268 20.776-3.9773 6.1028-9.879 15.971-12.83 22.074-3.0792 6.1028-7.5697 17.14-10.136 24.671-2.566 7.5311-5.7735 19.217-7.1848 25.969-1.283 6.752-3.0792 19.607-3.849 28.566-0.89811 9.3491-1.1547 23.632-0.6415 33.76 0.6415 13.894 1.283 18.438 3.3358 21.814 1.283 2.2074 4.3622 5.3238 6.5433 6.752 4.2339 2.5969 6.6716 2.5969 381.18 2.5969 374.25 0 376.82 0 381.95-2.5969 2.8225-1.4282 6.415-4.5446 7.9546-6.8817 2.8226-4.0255 2.9508-5.3238 3.3357-38.565 0.2566-18.958-0.2566-52.848-1.0264-75.311-0.7697-22.464-1.9244-49.991-2.6944-61.028-0.6414-11.037-2.0526-30.904-3.2074-44.148-1.0264-13.244-3.3357-37.136-5.1319-53.237-1.6679-16.101-3.7208-33.241-4.3622-38.305-0.7698-5.064-2.1811-15.582-3.2075-23.372-1.1547-7.7908-4.2338-27.787-7.0565-44.148-2.8225-16.361-7.4414-41.291-10.264-55.185-2.8225-13.894-6.6715-31.813-8.4677-39.603-1.9245-7.7908-6.2866-25.06-9.7507-38.305s-9.8791-35.448-14.113-49.342c-4.2338-13.894-11.162-34.669-15.139-46.096-4.1056-11.427-10.905-29.216-15.139-39.603-4.2339-10.388-10.649-25.58-14.37-33.76-3.5924-8.1804-11.29-24.281-17.192-35.708-5.9018-11.427-14.626-27.528-19.373-35.708-4.8754-8.1804-12.702-21.035-17.705-28.566-4.8754-7.5311-13.6-19.996-19.502-27.917-5.7735-7.9207-16.936-21.555-24.634-30.514-7.698-8.9594-19.758-21.555-26.815-28.177-6.9282-6.6222-16.807-15.192-21.683-19.217-5.0037-4.0252-15.909-12.076-24.377-17.789-8.4678-5.7133-22.966-14.153-32.075-18.698-9.2375-4.4148-21.554-9.8684-27.584-11.946-6.0301-2.0776-16.936-5.3238-24.377-7.1416-7.4414-1.8179-18.347-3.8954-24.377-4.6745-6.0301-0.77909-34.256-1.9477-62.867-2.7268-28.611-0.64923-57.093-1.2985-63.508-1.2985h-11.547c-39.773-80.895-52.731-106.09-54.527-108.16-1.7962-2.0776-4.7471-4.6745-6.7999-5.5834-1.9245-1.0388-5.9018-1.8179-8.981-1.8179-2.9509 0-7.1848 1.0388-9.4942 2.2074-2.1811 1.2985-7.0565 5.1939-10.905 8.6998-3.7207 3.376-10.007 9.2191-13.856 12.985-3.849 3.6357-14.241 13.374-23.094 21.555-8.8527 8.1804-19.245 18.049-23.094 21.684-3.849 3.7656-7.698 6.8819-8.3395 6.8819-0.7698 0-6.7999-3.1163-13.471-6.8819s-26.943-15.322-44.905-25.45c-17.962-10.258-42.595-24.281-54.527-31.033-18.988-10.907-22.709-12.465-28.867-12.985-5.3886-0.25969-7.8263 0.12985-10.521 2.0776z"/>
  <path class="s1" d="m147.46 329.03v11.037h-21.811v22.074h-21.811v22.074h21.811v-22.074h21.811v22.074h20.528v-22.074h21.811v-22.074h21.811v-22.074h-21.811v22.074h-21.811v-22.074h-20.528zm242.49 0v11.037h-21.811v22.074h-20.528v22.074h20.528v-22.074h21.811v22.074h21.811v-22.074h21.811v-22.074h21.811v-22.074h-21.811v22.074h-21.811v-22.074h-21.811z"/>
  <path class="s2" d="m473.47 54.011c0.51321 0.51939 10.905 21.165 23.094 45.836 12.188 24.671 23.735 46.615 25.532 48.693 1.9245 2.2074 5.3886 4.9342 7.8263 6.1028 3.7207 1.8179 12.702 2.3372 66.587 3.5059 34.256 0.77908 67.357 1.688 73.772 2.2074 6.415 0.38954 17.064 1.8179 23.735 3.1163s17.705 4.1551 24.377 6.3625c6.6716 2.3372 18.603 7.2714 26.301 11.037 7.698 3.6357 18.475 9.6087 23.735 12.985 5.2603 3.5059 12.83 8.6998 16.679 11.556 3.849 2.9865 10.521 8.3102 14.754 11.816 4.2339 3.5059 12.445 11.167 18.347 16.88 5.9018 5.8431 16.037 16.62 22.581 24.152 6.5433 7.5311 15.396 18.308 19.63 24.022 4.2339 5.7133 11.547 15.971 16.166 22.723 4.6188 6.752 13.343 20.776 19.502 31.163 6.0301 10.388 16.422 29.605 22.966 42.85 6.5433 13.244 16.294 34.539 21.683 47.394 5.3886 12.855 13.856 34.799 18.86 48.693 5.0037 13.894 11.675 34.15 15.011 44.797 3.2075 10.777 8.0829 27.657 10.777 37.656 2.8226 9.9982 7.4414 27.787 10.264 39.603 2.8226 11.816 7.1847 31.033 9.7507 42.85 2.4377 11.816 6.6716 34.539 9.4942 50.64 2.6943 16.101 6.6716 41.162 8.8527 55.834 2.0528 14.673 5.132 40.382 6.9282 57.133 1.7961 16.75 4.1055 41.551 5.132 55.185 1.1545 13.634 2.566 35.189 3.3356 48.043 0.7699 12.855 1.9246 41.811 2.566 64.274 0.6416 22.464 1.283 47.524 1.283 70.117h-710.14l0.89809-18.438c0.3849-10.777 1.9245-23.502 3.4641-30.255 1.4113-6.4924 4.1056-16.101 6.0301-21.425 1.7962-5.3237 5.3886-13.764 7.9546-18.828 2.4377-5.064 7.1848-13.115 10.521-18.179s10.392-14.283 15.653-20.776c5.2603-6.4923 21.683-23.502 36.437-37.785 14.754-14.413 29.124-28.177 31.818-30.514 2.8226-2.4671 11.932-12.076 20.4-21.295 8.4678-9.2191 19.502-22.464 24.633-29.216 5.132-6.7521 11.547-16.101 14.37-20.776 2.6943-4.6745 7.9546-14.023 11.547-20.776s8.5961-17.4 11.162-23.632c2.566-6.3625 6.5433-18.049 8.981-25.969 2.4377-8.0505 5.9018-21.944 7.5697-30.904 1.7962-8.9594 3.9773-22.334 5.0037-29.865 1.0264-8.5699 1.6679-27.008 1.6679-49.342 0-19.607-0.5132-39.474-2.0528-52.588l11.034-13.634c6.1584-7.5312 14.113-18.049 17.834-23.372 3.849-5.3237 9.2376-14.153 12.317-19.477 2.9509-5.3237 7.3131-14.413 9.6225-20.126 2.3094-5.7133 5.5169-15.062 7.0565-20.776 1.4113-5.7133 3.4641-16.231 4.4905-23.372 1.0264-7.1416 2.1811-19.996 2.6943-28.566 0.76981-14.283 0.6415-16.101-1.9245-21.684-1.6679-3.7656-4.3622-7.2714-6.9282-8.8296-2.4377-1.5582-6.415-2.5969-9.8791-2.5969-3.4641 0-7.4414 1.0388-10.007 2.5969-2.3094 1.5582-5.132 4.9342-6.5433 8.1804-1.6679 3.8954-2.566 10.128-3.2075 22.334-0.51319 9.2192-1.9245 22.464-3.3358 29.216-1.4113 6.752-3.9773 16.75-5.7735 22.074-1.7962 5.3237-5.7734 14.413-8.7244 20.126-3.0792 5.7133-8.7244 14.803-12.573 20.126-3.9773 5.3237-10.521 13.504-14.754 18.049-4.1056 4.5447-12.445 12.206-18.475 17.01-6.0301 4.8044-15.268 11.556-20.528 15.192-5.2603 3.5059-16.037 10.128-23.735 14.673-7.8263 4.5446-23.864 12.985-35.924 18.828s-26.686 12.855-32.716 15.712c-6.0301 2.7268-21.298 10.258-33.999 16.88-12.702 6.4924-29.509 15.712-37.207 20.516-7.8263 4.9342-18.988 12.725-25.018 17.659-6.0301 4.8043-13.985 12.465-17.834 17.01-3.849 4.5447-11.547 15.322-17.064 23.892-5.5169 8.5699-13.471 22.334-17.577 30.514-4.2339 8.1804-10.521 21.684-14.241 29.865-3.7207 8.1804-10.264 20.776-14.498 27.917-4.2339 7.1416-10.905 17.27-14.883 22.464-3.9773 5.3237-10.136 11.556-13.6 14.153-4.7471 3.376-8.2112 4.6745-13.471 5.1939-4.7471 0.38955-8.8527 0-12.573-1.4283-2.9509-1.1686-5.3886-2.8566-5.3886-3.6357 0-0.90893 2.0528-4.5446 4.3622-8.1804 2.4377-3.5059 10.264-15.841 17.32-27.268 12.06-19.217 12.958-21.295 12.958-27.268 0-3.8954-0.89811-7.9207-2.3094-9.9982-1.1547-1.9477-3.9773-4.8043-6.0301-6.2327-2.4377-1.5582-6.0301-2.5969-9.6225-2.5969-4.2339 0-7.3131 1.0388-11.547 3.6357-3.2075 2.0776-7.1848 5.1939-8.981 7.0117-1.7962 1.8179-10.136 10.907-18.603 20.386-14.498 16.101-15.653 17.01-20.271 17.01-2.566 0-8.0829-0.90894-12.188-2.0776-3.9773-1.1686-12.573-4.8043-18.86-8.0505-8.2112-4.285-13.985-8.4401-20.015-14.543-4.6188-4.6745-11.034-12.855-14.37-18.179-3.2075-5.3237-7.5697-14.413-9.6225-20.126-2.0528-5.7133-4.4905-15.062-5.3886-20.776-0.8981-6.1028-1.1547-14.413-0.6415-20.126 0.3849-5.3237 1.6679-14.023 2.6943-19.088 1.0264-5.1939 3.7207-14.932 6.1584-21.425 2.4377-6.6222 5.6452-14.932 7.1848-18.568 1.6679-3.5059 6.9282-14.153 11.932-23.372 5.0037-9.2191 15.268-26.489 22.709-38.305 7.5697-11.816 18.347-28.436 23.992-37.006 5.6452-8.5699 13.856-21.684 18.347-29.216 4.4905-7.5311 11.675-20.646 16.037-29.216 4.3622-8.5699 9.6225-20.516 15.781-37.656l32.331-0.64924v-22.074h21.811v-22.074h21.811v-49.342h33.358v49.342h20.528v22.074h21.811v22.074h124.45v-22.074h21.811v-22.074h21.811v-20.776h21.811v-28.566h156.53v-27.268h-479.84l3.2075-7.4013c1.7962-4.1551 5.132-11.037 7.3131-15.322 2.1811-4.285 7.5697-12.985 11.804-19.347 4.3622-6.3625 11.932-16.361 16.807-22.074 5.0037-5.8431 13.471-14.023 18.603-18.438 5.2603-4.4148 13.6-10.518 18.603-13.764 5.0037-3.2462 28.098-15.582 51.32-27.657 23.222-11.946 52.988-27.398 66.074-34.15 13.087-6.7521 25.403-13.504 27.584-15.062 2.0528-1.4283 6.7999-5.3237 10.392-8.5699 3.5924-3.2462 18.475-17.14 33.23-30.904 14.754-13.894 27.199-24.671 27.713-24.022zm-201.17 1.8179c1.5396 0.90893 6.5433 3.7656 11.162 6.3625 4.6188 2.7268 15.909 9.0893 25.018 14.283 9.1092 5.3237 22.068 12.725 28.611 16.491 6.415 3.7656 11.804 7.5311 11.804 8.1804 0 0.77908-10.777 6.752-24.12 13.504-13.215 6.752-29.637 15.192-36.437 18.828-8.5961 4.5446-12.702 6.1028-13.087 5.064-0.3849-0.90894-2.0528-19.607-3.849-41.551-1.7962-22.074-2.9509-40.642-2.566-41.291 0.38491-0.90893 1.6679-0.77908 3.4641 0.12985z" fill-rule="evenodd"/>
  <path class="s1" d="m167.99 351.1v11.037h21.811v-22.074h-21.811zm243.77 0v11.037h21.811v-22.074h-21.811z"/>
  <path class="s0" d="m660.66 332.27v14.283h26.943v-28.566h-26.943zm-513.2 18.828v11.037h20.528v-22.074h-20.528zm242.49 0v11.037h21.811v-22.074h-21.811zm-304.07 279.17c-3.2075 0.90893-8.3395 4.0253-11.547 6.8819-3.2075 2.7268-7.5697 8.4401-9.7508 12.725-2.3094 4.1551-4.7471 10.777-5.5169 14.413-0.7698 3.7656-1.4113 12.725-1.4113 19.867 0 8.9594 0.6415 14.153 1.9245 16.88 1.1547 2.3373 2.9509 3.8954 4.4905 3.8954 1.4113 0 7.0565-2.9865 12.573-6.752 5.3886-3.6357 14.241-9.9982 19.502-14.023 5.2603-4.1551 12.317-10.388 15.781-14.153 5.7735-6.3625 6.0301-6.8819 6.0301-14.413 0-4.285-0.64151-9.349-1.4113-11.427-0.7698-1.9477-2.566-4.9342-4.1056-6.4924-1.5396-1.688-4.8754-4.1551-7.3131-5.4536s-6.5433-2.7268-8.981-3.1163c-2.4377-0.38955-7.0565 0.12983-10.264 1.1686z"/>
 </g>
 <g fill="#ffffff" font-family="'Secular One'" stroke="#000000" stroke-linecap="round" stroke-linejoin="round" stroke-width="36">
  <text x="1158.8433" y="494.18817" font-size="507.59px" style="paint-order:stroke fill markers" xml:space="preserve"><tspan x="1158.8433" y="494.18817" fill="#ffffff" stroke="#000000" stroke-linejoin="round" stroke-width="36" style="paint-order:stroke fill markers">Anarchy</tspan></text>
  <text x="1158.8433" y="954.18817" font-size="507.59px" style="paint-order:stroke fill markers" xml:space="preserve"><tspan x="1158.8433" y="954.18817" fill="#ffffff" stroke="#000000" stroke-linejoin="round" stroke-width="36" style="paint-order:stroke fill markers">Chess</tspan></text>
  <text x="2527.5488" y="925.94684" font-size="280px" style="paint-order:stroke fill markers" xml:space="preserve"><tspan x="2527.5488" y="925.94684" fill="#ffffff" font-size="280px" stroke="#000000" stroke-linejoin="round" stroke-width="36" style="paint-order:stroke fill markers">.org</tspan></text>
 </g>
 <metadata>
  <rdf:RDF>
   <cc:Work rdf:about="">
    <dc:title>Logo No Background</dc:title>
   </cc:Work>
  </rdf:RDF>
 </metadata>
</svg>
